<?xml version="1.0" encoding="UTF-8" standalone="no"?>
<!DOCTYPE svg PUBLIC "-//W3C//DTD SVG 1.1//EN"
 "http://www.w3.org/Graphics/SVG/1.1/DTD/svg11.dtd">
<!-- Generated by graphviz version 2.38.0 (20140413.2041)
 -->
<!-- Title: %3 Pages: 1 -->
<svg width="178pt" height="107pt"
 viewBox="0.00 0.00 178.00 107.25" xmlns="http://www.w3.org/2000/svg" xmlns:xlink="http://www.w3.org/1999/xlink">
<g id="graph0" class="graph" transform="scale(1 1) rotate(0) translate(4 103.255)">
<title>%3</title>
<polygon fill="white" stroke="none" points="-4,4 -4,-103.255 174,-103.255 174,4 -4,4"/>
<!-- In0 -->
<g id="node1" class="node"><title>In0</title>
<polygon fill="lightgray" stroke="black" points="29,-99.2548 0,-99.2548 0,-81.2548 29,-81.2548 29,-99.2548"/>
<text text-anchor="middle" x="14.5" y="-88.0548" font-family="Times New Roman,serif" font-size="9.00">In0</text>
</g>
<!-- act1 -->
<g id="node5" class="node"><title>act1</title>
<ellipse fill="lightblue" stroke="black" cx="61.5" cy="-22.6274" rx="22.7556" ry="22.7556"/>
<text text-anchor="middle" x="61.5" y="-20.4274" font-family="Times New Roman,serif" font-size="9.00">act1</text>
</g>
<!-- In0&#45;&gt;act1 -->
<g id="edge1" class="edge"><title>In0&#45;&gt;act1</title>
<path fill="none" stroke="green" stroke-width="0.464455" stroke-dasharray="1,5" d="M20.2631,-81.2076C25.8887,-73.3524 34.7564,-60.9702 42.8294,-49.6977"/>
<polygon fill="green" stroke="green" stroke-width="0.464455" points="45.8041,-51.5552 48.7811,-41.3871 40.113,-47.4794 45.8041,-51.5552"/>
</g>
<!-- In1 -->
<g id="node2" class="node"><title>In1</title>
<polygon fill="lightgray" stroke="black" points="76,-99.2548 47,-99.2548 47,-81.2548 76,-81.2548 76,-99.2548"/>
<text text-anchor="middle" x="61.5" y="-88.0548" font-family="Times New Roman,serif" font-size="9.00">In1</text>
</g>
<!-- In1&#45;&gt;act1 -->
<g id="edge2" class="edge"><title>In1&#45;&gt;act1</title>
<path fill="none" stroke="green" stroke-width="0.568824" d="M61.5,-81.2076C61.5,-74.6723 61.5,-65.0035 61.5,-55.4473"/>
<polygon fill="green" stroke="green" stroke-width="0.568824" points="65.0001,-55.2754 61.5,-45.2754 58.0001,-55.2754 65.0001,-55.2754"/>
</g>
<!-- act2 -->
<g id="node6" class="node"><title>act2</title>
<ellipse fill="lightblue" stroke="black" cx="124.5" cy="-22.6274" rx="22.7556" ry="22.7556"/>
<text text-anchor="middle" x="124.5" y="-20.4274" font-family="Times New Roman,serif" font-size="9.00">act2</text>
</g>
<!-- In1&#45;&gt;act2 -->
<g id="edge3" class="edge"><title>In1&#45;&gt;act2</title>
<path fill="none" stroke="green" stroke-width="0.252984" d="M69.225,-81.2076C77.3649,-72.7283 90.5685,-58.9741 102.03,-47.0346"/>
<polygon fill="green" stroke="green" stroke-width="0.252984" points="104.839,-49.1623 109.239,-39.5244 99.7893,-44.3147 104.839,-49.1623"/>
</g>
<!-- In3 -->
<g id="node3" class="node"><title>In3</title>
<polygon fill="lightgray" stroke="black" points="123,-99.2548 94,-99.2548 94,-81.2548 123,-81.2548 123,-99.2548"/>
<text text-anchor="middle" x="108.5" y="-88.0548" font-family="Times New Roman,serif" font-size="9.00">In3</text>
</g>
<!-- In3&#45;&gt;act1 -->
<g id="edge4" class="edge"><title>In3&#45;&gt;act1</title>
<path fill="none" stroke="red" stroke-width="0.665933" d="M102.737,-81.2076C97.1113,-73.3524 88.2436,-60.9702 80.1706,-49.6977"/>
<polygon fill="red" stroke="red" stroke-width="0.665933" points="82.887,-47.4794 74.2189,-41.3871 77.1959,-51.5552 82.887,-47.4794"/>
</g>
<!-- In3&#45;&gt;act2 -->
<g id="edge5" class="edge"><title>In3&#45;&gt;act2</title>
<path fill="none" stroke="green" stroke-width="0.134208" d="M110.462,-81.2076C112.097,-74.5012 114.536,-64.495 116.925,-54.6968"/>
<polygon fill="green" stroke="green" stroke-width="0.134208" points="120.392,-55.2528 119.36,-44.7084 113.591,-53.5947 120.392,-55.2528"/>
</g>
<!-- In4 -->
<g id="node4" class="node"><title>In4</title>
<polygon fill="lightgray" stroke="black" points="170,-99.2548 141,-99.2548 141,-81.2548 170,-81.2548 170,-99.2548"/>
<text text-anchor="middle" x="155.5" y="-88.0548" font-family="Times New Roman,serif" font-size="9.00">In4</text>
</g>
<!-- In4&#45;&gt;act1 -->
<g id="edge6" class="edge"><title>In4&#45;&gt;act1</title>
<path fill="none" stroke="green" stroke-width="0.133739" d="M143.974,-81.2076C130.239,-71.6186 106.842,-55.2836 88.4688,-42.4561"/>
<polygon fill="green" stroke="green" stroke-width="0.133739" points="90.1202,-39.3404 79.9172,-36.4857 86.113,-45.08 90.1202,-39.3404"/>
</g>
<!-- In4&#45;&gt;act2 -->
<g id="edge7" class="edge"><title>In4&#45;&gt;act2</title>
<path fill="none" stroke="green" stroke-width="0.726848" d="M151.699,-81.2076C148.307,-74.0274 143.129,-63.0646 138.197,-52.6243"/>
<polygon fill="green" stroke="green" stroke-width="0.726848" points="141.232,-50.8538 133.796,-43.3067 134.902,-53.8436 141.232,-50.8538"/>
</g>
</g>
</svg>
