<?xml version="1.0" encoding="UTF-8" standalone="no"?>
<!DOCTYPE svg PUBLIC "-//W3C//DTD SVG 1.1//EN"
 "http://www.w3.org/Graphics/SVG/1.1/DTD/svg11.dtd">
<!-- Generated by graphviz version 2.38.0 (20140413.2041)
 -->
<!-- Title: %3 Pages: 1 -->
<svg width="116pt" height="288pt"
 viewBox="0.00 0.00 115.69 288.15" xmlns="http://www.w3.org/2000/svg" xmlns:xlink="http://www.w3.org/1999/xlink">
<g id="graph0" class="graph" transform="scale(1 1) rotate(0) translate(4 284.149)">
<title>%3</title>
<polygon fill="white" stroke="none" points="-4,4 -4,-284.149 111.69,-284.149 111.69,4 -4,4"/>
<!-- A -->
<g id="node1" class="node"><title>A</title>
<polygon fill="lightgray" stroke="black" points="54.7132,-280.149 31.7132,-280.149 31.7132,-262.149 54.7132,-262.149 54.7132,-280.149"/>
<text text-anchor="middle" x="43.2132" y="-268.949" font-family="Times New Roman,serif" font-size="9.00">A</text>
</g>
<!-- 272 -->
<g id="node4" class="node"><title>272</title>
<ellipse fill="white" stroke="black" cx="21.2132" cy="-132.167" rx="21.4286" ry="21.4286"/>
<text text-anchor="middle" x="21.2132" y="-129.967" font-family="Times New Roman,serif" font-size="9.00">272</text>
</g>
<!-- A&#45;&gt;272 -->
<g id="edge5" class="edge"><title>A&#45;&gt;272</title>
<path fill="none" stroke="green" stroke-width="0.44811" d="M41.9029,-261.991C38.8528,-242.999 31.1505,-195.041 26.053,-163.302"/>
<polygon fill="green" stroke="green" stroke-width="0.44811" points="29.4762,-162.543 24.4346,-153.225 22.5647,-163.653 29.4762,-162.543"/>
</g>
<!-- 60 -->
<g id="node5" class="node"><title>60</title>
<ellipse fill="white" stroke="black" cx="65.2132" cy="-207.765" rx="18.2703" ry="18.2703"/>
<text text-anchor="middle" x="65.2132" y="-205.565" font-family="Times New Roman,serif" font-size="9.00">60</text>
</g>
<!-- A&#45;&gt;60 -->
<g id="edge4" class="edge"><title>A&#45;&gt;60</title>
<path fill="none" stroke="green" stroke-width="0.372438" d="M46.0893,-262.124C48.5876,-255.153 52.3492,-244.658 55.877,-234.815"/>
<polygon fill="green" stroke="green" stroke-width="0.372438" points="59.1924,-235.938 59.2715,-225.343 52.6028,-233.576 59.1924,-235.938"/>
</g>
<!-- B -->
<g id="node2" class="node"><title>B</title>
<polygon fill="lightgray" stroke="black" points="97.7132,-280.149 74.7132,-280.149 74.7132,-262.149 97.7132,-262.149 97.7132,-280.149"/>
<text text-anchor="middle" x="86.2132" y="-268.949" font-family="Times New Roman,serif" font-size="9.00">B</text>
</g>
<!-- A XOR B -->
<g id="node3" class="node"><title>A XOR B</title>
<ellipse fill="lightblue" stroke="black" cx="70.2132" cy="-37.4767" rx="37.4533" ry="37.4533"/>
<text text-anchor="middle" x="70.2132" y="-35.2767" font-family="Times New Roman,serif" font-size="9.00">A XOR B</text>
</g>
<!-- B&#45;&gt;A XOR B -->
<g id="edge1" class="edge"><title>B&#45;&gt;A XOR B</title>
<path fill="none" stroke="green" stroke-width="0.25888" d="M87.6492,-262.073C89.1355,-253.274 91.3571,-238.764 92.2132,-226.149 95.5025,-177.684 87.6257,-122.494 80.4,-84.5751"/>
<polygon fill="green" stroke="green" stroke-width="0.25888" points="83.7543,-83.4937 78.389,-74.3579 76.8861,-84.8456 83.7543,-83.4937"/>
</g>
<!-- B&#45;&gt;60 -->
<g id="edge2" class="edge"><title>B&#45;&gt;60</title>
<path fill="none" stroke="green" stroke-width="0.418873" d="M83.4678,-262.124C81.0831,-255.153 77.4925,-244.658 74.125,-234.815"/>
<polygon fill="green" stroke="green" stroke-width="0.418873" points="77.4334,-233.672 70.8849,-225.343 70.8102,-235.938 77.4334,-233.672"/>
</g>
<!-- 272&#45;&gt;A XOR B -->
<g id="edge6" class="edge"><title>272&#45;&gt;A XOR B</title>
<path fill="none" stroke="green" stroke-width="0.252043" d="M30.894,-112.854C35.8677,-103.446 42.1466,-91.5682 48.2182,-80.0831"/>
<polygon fill="green" stroke="green" stroke-width="0.252043" points="51.4347,-81.4875 53.0141,-71.0111 45.2462,-78.216 51.4347,-81.4875"/>
</g>
<!-- 60&#45;&gt;A XOR B -->
<g id="edge3" class="edge"><title>60&#45;&gt;A XOR B</title>
<path fill="none" stroke="red" stroke-width="0.655686" d="M65.7388,-189.073C66.4637,-164.676 67.7965,-119.818 68.8196,-85.3827"/>
<polygon fill="red" stroke="red" stroke-width="0.655686" points="72.3275,-85.1643 69.1261,-75.0647 65.3306,-84.9563 72.3275,-85.1643"/>
</g>
<!-- 60&#45;&gt;272 -->
<g id="edge7" class="edge"><title>60&#45;&gt;272</title>
<path fill="none" stroke="red" stroke-width="0.512617" d="M56.0964,-191.515C50.5508,-182.239 43.3188,-170.142 36.8786,-159.37"/>
<polygon fill="red" stroke="red" stroke-width="0.512617" points="39.845,-157.511 31.7095,-150.723 33.8368,-161.103 39.845,-157.511"/>
</g>
</g>
</svg>
