<?xml version="1.0" encoding="utf-8" standalone="no"?>
<!DOCTYPE svg PUBLIC "-//W3C//DTD SVG 1.1//EN"
  "http://www.w3.org/Graphics/SVG/1.1/DTD/svg11.dtd">
<!-- Created with matplotlib (http://matplotlib.org/) -->
<svg height="345.6pt" version="1.1" viewBox="0 0 460.8 345.6" width="460.8pt" xmlns="http://www.w3.org/2000/svg" xmlns:xlink="http://www.w3.org/1999/xlink">
 <defs>
  <style type="text/css">
*{stroke-linecap:butt;stroke-linejoin:round;}
  </style>
 </defs>
 <g id="figure_1">
  <g id="patch_1">
   <path d="M 0 345.6 
L 460.8 345.6 
L 460.8 0 
L 0 0 
z
" style="fill:#ffffff;"/>
  </g>
  <g id="axes_1">
   <g id="patch_2">
    <path d="M 57.6 307.584 
L 414.72 307.584 
L 414.72 41.472 
L 57.6 41.472 
z
" style="fill:#ffffff;"/>
   </g>
   <g id="PolyCollection_1">
    <path clip-path="url(#p2fc9347fae)" d="M 73.832727 124.173474 
L 73.832727 307.584 
L 77.480531 307.584 
L 81.128335 307.584 
L 84.776139 307.584 
L 88.423943 307.584 
L 92.071747 307.584 
L 95.719551 307.584 
L 99.367354 307.584 
L 103.015158 307.584 
L 106.662962 307.584 
L 110.310766 307.584 
L 113.95857 307.584 
L 117.606374 307.584 
L 121.254178 307.584 
L 124.901982 307.584 
L 128.549785 307.584 
L 132.197589 307.584 
L 135.845393 307.584 
L 139.493197 307.584 
L 143.141001 307.584 
L 146.788805 307.584 
L 150.436609 307.584 
L 154.084413 307.584 
L 157.732217 307.584 
L 161.38002 307.584 
L 165.027824 307.584 
L 168.675628 307.584 
L 172.323432 307.584 
L 175.971236 307.584 
L 179.61904 307.584 
L 183.266844 307.584 
L 186.914648 307.584 
L 190.562451 307.584 
L 194.210255 307.584 
L 197.858059 307.584 
L 201.505863 307.584 
L 205.153667 307.584 
L 208.801471 307.584 
L 212.449275 307.584 
L 216.097079 307.584 
L 219.744883 307.584 
L 223.392686 307.584 
L 227.04049 307.584 
L 230.688294 307.584 
L 234.336098 307.584 
L 237.983902 307.584 
L 241.631706 307.584 
L 245.27951 307.584 
L 248.927314 307.584 
L 252.575117 307.584 
L 256.222921 307.584 
L 259.870725 307.584 
L 263.518529 307.584 
L 267.166333 307.584 
L 270.814137 307.584 
L 274.461941 307.584 
L 278.109745 307.584 
L 281.757549 307.584 
L 285.405352 307.584 
L 289.053156 307.584 
L 292.70096 307.584 
L 296.348764 307.584 
L 299.996568 307.584 
L 303.644372 307.584 
L 307.292176 307.584 
L 310.93998 307.584 
L 314.587783 307.584 
L 318.235587 307.584 
L 321.883391 307.584 
L 325.531195 307.584 
L 329.178999 307.584 
L 332.826803 307.584 
L 336.474607 307.584 
L 340.122411 307.584 
L 343.770215 307.584 
L 347.418018 307.584 
L 351.065822 307.584 
L 354.713626 307.584 
L 358.36143 307.584 
L 362.009234 307.584 
L 365.657038 307.584 
L 369.304842 307.584 
L 372.952646 307.584 
L 376.600449 307.584 
L 380.248253 307.584 
L 383.896057 307.584 
L 387.543861 307.584 
L 391.191665 307.584 
L 394.839469 307.584 
L 398.487273 307.584 
L 398.487273 285.908211 
L 398.487273 285.908211 
L 394.839469 285.908211 
L 391.191665 290.910316 
L 387.543861 289.242947 
L 383.896057 282.573474 
L 380.248253 285.908211 
L 376.600449 285.908211 
L 372.952646 275.904 
L 369.304842 279.238737 
L 365.657038 280.906105 
L 362.009234 284.240842 
L 358.36143 280.906105 
L 354.713626 277.571368 
L 351.065822 279.238737 
L 347.418018 279.238737 
L 343.770215 272.569263 
L 340.122411 277.571368 
L 336.474607 282.573474 
L 332.826803 275.904 
L 329.178999 275.904 
L 325.531195 275.904 
L 321.883391 274.236632 
L 318.235587 270.901895 
L 314.587783 272.569263 
L 310.93998 282.573474 
L 307.292176 277.571368 
L 303.644372 279.238737 
L 299.996568 280.906105 
L 296.348764 277.571368 
L 292.70096 274.236632 
L 289.053156 274.236632 
L 285.405352 279.238737 
L 281.757549 274.236632 
L 278.109745 274.236632 
L 274.461941 269.234526 
L 270.814137 269.234526 
L 267.166333 267.567158 
L 263.518529 270.901895 
L 259.870725 270.901895 
L 256.222921 269.234526 
L 252.575117 270.901895 
L 248.927314 270.901895 
L 245.27951 265.899789 
L 241.631706 259.230316 
L 237.983902 257.562947 
L 234.336098 269.234526 
L 230.688294 270.901895 
L 227.04049 267.567158 
L 223.392686 270.901895 
L 219.744883 264.232421 
L 216.097079 264.232421 
L 212.449275 267.567158 
L 208.801471 267.567158 
L 205.153667 264.232421 
L 201.505863 264.232421 
L 197.858059 265.899789 
L 194.210255 264.232421 
L 190.562451 264.232421 
L 186.914648 257.562947 
L 183.266844 262.565053 
L 179.61904 257.562947 
L 175.971236 244.224 
L 172.323432 234.219789 
L 168.675628 234.219789 
L 165.027824 230.885053 
L 161.38002 237.554526 
L 157.732217 235.887158 
L 154.084413 232.552421 
L 150.436609 230.885053 
L 146.788805 209.209263 
L 143.141001 204.207158 
L 139.493197 199.205053 
L 135.845393 197.537684 
L 132.197589 200.872421 
L 128.549785 214.211368 
L 124.901982 200.872421 
L 121.254178 204.207158 
L 117.606374 202.539789 
L 113.95857 204.207158 
L 110.310766 199.205053 
L 106.662962 204.207158 
L 103.015158 205.874526 
L 99.367354 199.205053 
L 95.719551 205.874526 
L 92.071747 207.541895 
L 88.423943 222.548211 
L 84.776139 240.889263 
L 81.128335 227.550316 
L 77.480531 220.880842 
L 73.832727 124.173474 
z
" style="fill:#1f77b4;"/>
   </g>
   <g id="PolyCollection_2">
    <path clip-path="url(#p2fc9347fae)" d="M 73.832727 57.478737 
L 73.832727 124.173474 
L 77.480531 220.880842 
L 81.128335 227.550316 
L 84.776139 240.889263 
L 88.423943 222.548211 
L 92.071747 207.541895 
L 95.719551 205.874526 
L 99.367354 199.205053 
L 103.015158 205.874526 
L 106.662962 204.207158 
L 110.310766 199.205053 
L 113.95857 204.207158 
L 117.606374 202.539789 
L 121.254178 204.207158 
L 124.901982 200.872421 
L 128.549785 214.211368 
L 132.197589 200.872421 
L 135.845393 197.537684 
L 139.493197 199.205053 
L 143.141001 204.207158 
L 146.788805 209.209263 
L 150.436609 230.885053 
L 154.084413 232.552421 
L 157.732217 235.887158 
L 161.38002 237.554526 
L 165.027824 230.885053 
L 168.675628 234.219789 
L 172.323432 234.219789 
L 175.971236 244.224 
L 179.61904 257.562947 
L 183.266844 262.565053 
L 186.914648 257.562947 
L 190.562451 264.232421 
L 194.210255 264.232421 
L 197.858059 265.899789 
L 201.505863 264.232421 
L 205.153667 264.232421 
L 208.801471 267.567158 
L 212.449275 267.567158 
L 216.097079 264.232421 
L 219.744883 264.232421 
L 223.392686 270.901895 
L 227.04049 267.567158 
L 230.688294 270.901895 
L 234.336098 269.234526 
L 237.983902 257.562947 
L 241.631706 259.230316 
L 245.27951 265.899789 
L 248.927314 270.901895 
L 252.575117 270.901895 
L 256.222921 269.234526 
L 259.870725 270.901895 
L 263.518529 270.901895 
L 267.166333 267.567158 
L 270.814137 269.234526 
L 274.461941 269.234526 
L 278.109745 274.236632 
L 281.757549 274.236632 
L 285.405352 279.238737 
L 289.053156 274.236632 
L 292.70096 274.236632 
L 296.348764 277.571368 
L 299.996568 280.906105 
L 303.644372 279.238737 
L 307.292176 277.571368 
L 310.93998 282.573474 
L 314.587783 272.569263 
L 318.235587 270.901895 
L 321.883391 274.236632 
L 325.531195 275.904 
L 329.178999 275.904 
L 332.826803 275.904 
L 336.474607 282.573474 
L 340.122411 277.571368 
L 343.770215 272.569263 
L 347.418018 279.238737 
L 351.065822 279.238737 
L 354.713626 277.571368 
L 358.36143 280.906105 
L 362.009234 284.240842 
L 365.657038 280.906105 
L 369.304842 279.238737 
L 372.952646 275.904 
L 376.600449 285.908211 
L 380.248253 285.908211 
L 383.896057 282.573474 
L 387.543861 289.242947 
L 391.191665 290.910316 
L 394.839469 285.908211 
L 398.487273 285.908211 
L 398.487273 285.908211 
L 398.487273 285.908211 
L 394.839469 285.908211 
L 391.191665 290.910316 
L 387.543861 289.242947 
L 383.896057 282.573474 
L 380.248253 285.908211 
L 376.600449 285.908211 
L 372.952646 275.904 
L 369.304842 279.238737 
L 365.657038 280.906105 
L 362.009234 284.240842 
L 358.36143 280.906105 
L 354.713626 277.571368 
L 351.065822 279.238737 
L 347.418018 279.238737 
L 343.770215 272.569263 
L 340.122411 277.571368 
L 336.474607 282.573474 
L 332.826803 275.904 
L 329.178999 275.904 
L 325.531195 275.904 
L 321.883391 274.236632 
L 318.235587 270.901895 
L 314.587783 272.569263 
L 310.93998 282.573474 
L 307.292176 277.571368 
L 303.644372 279.238737 
L 299.996568 280.906105 
L 296.348764 277.571368 
L 292.70096 274.236632 
L 289.053156 274.236632 
L 285.405352 279.238737 
L 281.757549 274.236632 
L 278.109745 274.236632 
L 274.461941 269.234526 
L 270.814137 269.234526 
L 267.166333 267.567158 
L 263.518529 270.901895 
L 259.870725 270.901895 
L 256.222921 269.234526 
L 252.575117 270.901895 
L 248.927314 270.901895 
L 245.27951 265.899789 
L 241.631706 259.230316 
L 237.983902 257.562947 
L 234.336098 222.548211 
L 230.688294 217.546105 
L 227.04049 232.552421 
L 223.392686 240.889263 
L 219.744883 199.205053 
L 216.097079 157.520842 
L 212.449275 182.531368 
L 208.801471 184.198737 
L 205.153667 207.541895 
L 201.505863 190.868211 
L 197.858059 202.539789 
L 194.210255 212.544 
L 190.562451 227.550316 
L 186.914648 157.520842 
L 183.266844 180.864 
L 179.61904 177.529263 
L 175.971236 132.510316 
L 172.323432 89.158737 
L 168.675628 167.525053 
L 165.027824 170.859789 
L 161.38002 175.861895 
L 157.732217 132.510316 
L 154.084413 159.188211 
L 150.436609 100.830316 
L 146.788805 64.148211 
L 143.141001 57.478737 
L 139.493197 57.478737 
L 135.845393 57.478737 
L 132.197589 57.478737 
L 128.549785 57.478737 
L 124.901982 57.478737 
L 121.254178 57.478737 
L 117.606374 57.478737 
L 113.95857 57.478737 
L 110.310766 57.478737 
L 106.662962 57.478737 
L 103.015158 57.478737 
L 99.367354 57.478737 
L 95.719551 57.478737 
L 92.071747 57.478737 
L 88.423943 57.478737 
L 84.776139 57.478737 
L 81.128335 57.478737 
L 77.480531 57.478737 
L 73.832727 57.478737 
z
" style="fill:#ff7f0e;"/>
   </g>
   <g id="PolyCollection_3">
    <path clip-path="url(#p2fc9347fae)" d="M 73.832727 57.478737 
L 73.832727 57.478737 
L 77.480531 57.478737 
L 81.128335 57.478737 
L 84.776139 57.478737 
L 88.423943 57.478737 
L 92.071747 57.478737 
L 95.719551 57.478737 
L 99.367354 57.478737 
L 103.015158 57.478737 
L 106.662962 57.478737 
L 110.310766 57.478737 
L 113.95857 57.478737 
L 117.606374 57.478737 
L 121.254178 57.478737 
L 124.901982 57.478737 
L 128.549785 57.478737 
L 132.197589 57.478737 
L 135.845393 57.478737 
L 139.493197 57.478737 
L 143.141001 57.478737 
L 146.788805 64.148211 
L 150.436609 100.830316 
L 154.084413 159.188211 
L 157.732217 132.510316 
L 161.38002 175.861895 
L 165.027824 170.859789 
L 168.675628 167.525053 
L 172.323432 89.158737 
L 175.971236 132.510316 
L 179.61904 177.529263 
L 183.266844 180.864 
L 186.914648 157.520842 
L 190.562451 227.550316 
L 194.210255 212.544 
L 197.858059 202.539789 
L 201.505863 190.868211 
L 205.153667 207.541895 
L 208.801471 184.198737 
L 212.449275 182.531368 
L 216.097079 157.520842 
L 219.744883 199.205053 
L 223.392686 240.889263 
L 227.04049 232.552421 
L 230.688294 217.546105 
L 234.336098 222.548211 
L 237.983902 257.562947 
L 241.631706 259.230316 
L 245.27951 265.899789 
L 248.927314 270.901895 
L 252.575117 270.901895 
L 256.222921 269.234526 
L 259.870725 270.901895 
L 263.518529 270.901895 
L 267.166333 267.567158 
L 270.814137 269.234526 
L 274.461941 269.234526 
L 278.109745 274.236632 
L 281.757549 274.236632 
L 285.405352 279.238737 
L 289.053156 274.236632 
L 292.70096 274.236632 
L 296.348764 277.571368 
L 299.996568 280.906105 
L 303.644372 279.238737 
L 307.292176 277.571368 
L 310.93998 282.573474 
L 314.587783 272.569263 
L 318.235587 270.901895 
L 321.883391 274.236632 
L 325.531195 275.904 
L 329.178999 275.904 
L 332.826803 275.904 
L 336.474607 282.573474 
L 340.122411 277.571368 
L 343.770215 272.569263 
L 347.418018 279.238737 
L 351.065822 279.238737 
L 354.713626 277.571368 
L 358.36143 280.906105 
L 362.009234 284.240842 
L 365.657038 280.906105 
L 369.304842 279.238737 
L 372.952646 275.904 
L 376.600449 285.908211 
L 380.248253 285.908211 
L 383.896057 282.573474 
L 387.543861 289.242947 
L 391.191665 290.910316 
L 394.839469 285.908211 
L 398.487273 285.908211 
L 398.487273 285.908211 
L 398.487273 285.908211 
L 394.839469 285.908211 
L 391.191665 290.910316 
L 387.543861 289.242947 
L 383.896057 282.573474 
L 380.248253 285.908211 
L 376.600449 285.908211 
L 372.952646 275.904 
L 369.304842 279.238737 
L 365.657038 280.906105 
L 362.009234 284.240842 
L 358.36143 280.906105 
L 354.713626 277.571368 
L 351.065822 279.238737 
L 347.418018 279.238737 
L 343.770215 272.569263 
L 340.122411 277.571368 
L 336.474607 282.573474 
L 332.826803 275.904 
L 329.178999 275.904 
L 325.531195 275.904 
L 321.883391 274.236632 
L 318.235587 270.901895 
L 314.587783 272.569263 
L 310.93998 282.573474 
L 307.292176 277.571368 
L 303.644372 279.238737 
L 299.996568 280.906105 
L 296.348764 277.571368 
L 292.70096 274.236632 
L 289.053156 274.236632 
L 285.405352 279.238737 
L 281.757549 274.236632 
L 278.109745 274.236632 
L 274.461941 269.234526 
L 270.814137 269.234526 
L 267.166333 267.567158 
L 263.518529 270.901895 
L 259.870725 270.901895 
L 256.222921 269.234526 
L 252.575117 270.901895 
L 248.927314 270.901895 
L 245.27951 265.899789 
L 241.631706 259.230316 
L 237.983902 197.537684 
L 234.336098 167.525053 
L 230.688294 170.859789 
L 227.04049 157.520842 
L 223.392686 149.184 
L 219.744883 149.184 
L 216.097079 135.845053 
L 212.449275 125.840842 
L 208.801471 159.188211 
L 205.153667 155.853474 
L 201.505863 157.520842 
L 197.858059 155.853474 
L 194.210255 152.518737 
L 190.562451 145.849263 
L 186.914648 120.838737 
L 183.266844 124.173474 
L 179.61904 114.169263 
L 175.971236 65.815579 
L 172.323432 60.813474 
L 168.675628 59.146105 
L 165.027824 59.146105 
L 161.38002 59.146105 
L 157.732217 57.478737 
L 154.084413 57.478737 
L 150.436609 57.478737 
L 146.788805 57.478737 
L 143.141001 57.478737 
L 139.493197 57.478737 
L 135.845393 57.478737 
L 132.197589 57.478737 
L 128.549785 57.478737 
L 124.901982 57.478737 
L 121.254178 57.478737 
L 117.606374 57.478737 
L 113.95857 57.478737 
L 110.310766 57.478737 
L 106.662962 57.478737 
L 103.015158 57.478737 
L 99.367354 57.478737 
L 95.719551 57.478737 
L 92.071747 57.478737 
L 88.423943 57.478737 
L 84.776139 57.478737 
L 81.128335 57.478737 
L 77.480531 57.478737 
L 73.832727 57.478737 
z
" style="fill:#2ca02c;"/>
   </g>
   <g id="PolyCollection_4">
    <path clip-path="url(#p2fc9347fae)" d="M 73.832727 57.478737 
L 73.832727 57.478737 
L 77.480531 57.478737 
L 81.128335 57.478737 
L 84.776139 57.478737 
L 88.423943 57.478737 
L 92.071747 57.478737 
L 95.719551 57.478737 
L 99.367354 57.478737 
L 103.015158 57.478737 
L 106.662962 57.478737 
L 110.310766 57.478737 
L 113.95857 57.478737 
L 117.606374 57.478737 
L 121.254178 57.478737 
L 124.901982 57.478737 
L 128.549785 57.478737 
L 132.197589 57.478737 
L 135.845393 57.478737 
L 139.493197 57.478737 
L 143.141001 57.478737 
L 146.788805 57.478737 
L 150.436609 57.478737 
L 154.084413 57.478737 
L 157.732217 57.478737 
L 161.38002 59.146105 
L 165.027824 59.146105 
L 168.675628 59.146105 
L 172.323432 60.813474 
L 175.971236 65.815579 
L 179.61904 114.169263 
L 183.266844 124.173474 
L 186.914648 120.838737 
L 190.562451 145.849263 
L 194.210255 152.518737 
L 197.858059 155.853474 
L 201.505863 157.520842 
L 205.153667 155.853474 
L 208.801471 159.188211 
L 212.449275 125.840842 
L 216.097079 135.845053 
L 219.744883 149.184 
L 223.392686 149.184 
L 227.04049 157.520842 
L 230.688294 170.859789 
L 234.336098 167.525053 
L 237.983902 197.537684 
L 241.631706 259.230316 
L 245.27951 265.899789 
L 248.927314 270.901895 
L 252.575117 270.901895 
L 256.222921 269.234526 
L 259.870725 270.901895 
L 263.518529 270.901895 
L 267.166333 267.567158 
L 270.814137 269.234526 
L 274.461941 269.234526 
L 278.109745 274.236632 
L 281.757549 274.236632 
L 285.405352 279.238737 
L 289.053156 274.236632 
L 292.70096 274.236632 
L 296.348764 277.571368 
L 299.996568 280.906105 
L 303.644372 279.238737 
L 307.292176 277.571368 
L 310.93998 282.573474 
L 314.587783 272.569263 
L 318.235587 270.901895 
L 321.883391 274.236632 
L 325.531195 275.904 
L 329.178999 275.904 
L 332.826803 275.904 
L 336.474607 282.573474 
L 340.122411 277.571368 
L 343.770215 272.569263 
L 347.418018 279.238737 
L 351.065822 279.238737 
L 354.713626 277.571368 
L 358.36143 280.906105 
L 362.009234 284.240842 
L 365.657038 280.906105 
L 369.304842 279.238737 
L 372.952646 275.904 
L 376.600449 285.908211 
L 380.248253 285.908211 
L 383.896057 282.573474 
L 387.543861 289.242947 
L 391.191665 290.910316 
L 394.839469 285.908211 
L 398.487273 285.908211 
L 398.487273 242.556632 
L 398.487273 242.556632 
L 394.839469 242.556632 
L 391.191665 239.221895 
L 387.543861 234.219789 
L 383.896057 227.550316 
L 380.248253 227.550316 
L 376.600449 232.552421 
L 372.952646 225.882947 
L 369.304842 227.550316 
L 365.657038 242.556632 
L 362.009234 240.889263 
L 358.36143 242.556632 
L 354.713626 237.554526 
L 351.065822 240.889263 
L 347.418018 242.556632 
L 343.770215 234.219789 
L 340.122411 237.554526 
L 336.474607 240.889263 
L 332.826803 232.552421 
L 329.178999 232.552421 
L 325.531195 230.885053 
L 321.883391 222.548211 
L 318.235587 219.213474 
L 314.587783 219.213474 
L 310.93998 232.552421 
L 307.292176 225.882947 
L 303.644372 224.215579 
L 299.996568 220.880842 
L 296.348764 215.878737 
L 292.70096 214.211368 
L 289.053156 219.213474 
L 285.405352 225.882947 
L 281.757549 225.882947 
L 278.109745 215.878737 
L 274.461941 227.550316 
L 270.814137 227.550316 
L 267.166333 222.548211 
L 263.518529 225.882947 
L 259.870725 225.882947 
L 256.222921 224.215579 
L 252.575117 224.215579 
L 248.927314 222.548211 
L 245.27951 210.876632 
L 241.631706 205.874526 
L 237.983902 144.181895 
L 234.336098 110.834526 
L 230.688294 124.173474 
L 227.04049 120.838737 
L 223.392686 110.834526 
L 219.744883 114.169263 
L 216.097079 110.834526 
L 212.449275 120.838737 
L 208.801471 117.504 
L 205.153667 124.173474 
L 201.505863 130.842947 
L 197.858059 137.512421 
L 194.210255 110.834526 
L 190.562451 109.167158 
L 186.914648 107.499789 
L 183.266844 57.478737 
L 179.61904 55.811368 
L 175.971236 55.811368 
L 172.323432 59.146105 
L 168.675628 59.146105 
L 165.027824 59.146105 
L 161.38002 59.146105 
L 157.732217 57.478737 
L 154.084413 57.478737 
L 150.436609 57.478737 
L 146.788805 57.478737 
L 143.141001 57.478737 
L 139.493197 57.478737 
L 135.845393 57.478737 
L 132.197589 57.478737 
L 128.549785 57.478737 
L 124.901982 57.478737 
L 121.254178 57.478737 
L 117.606374 57.478737 
L 113.95857 57.478737 
L 110.310766 57.478737 
L 106.662962 57.478737 
L 103.015158 57.478737 
L 99.367354 57.478737 
L 95.719551 57.478737 
L 92.071747 57.478737 
L 88.423943 57.478737 
L 84.776139 57.478737 
L 81.128335 57.478737 
L 77.480531 57.478737 
L 73.832727 57.478737 
z
" style="fill:#d62728;"/>
   </g>
   <g id="PolyCollection_5">
    <path clip-path="url(#p2fc9347fae)" d="M 73.832727 57.478737 
L 73.832727 57.478737 
L 77.480531 57.478737 
L 81.128335 57.478737 
L 84.776139 57.478737 
L 88.423943 57.478737 
L 92.071747 57.478737 
L 95.719551 57.478737 
L 99.367354 57.478737 
L 103.015158 57.478737 
L 106.662962 57.478737 
L 110.310766 57.478737 
L 113.95857 57.478737 
L 117.606374 57.478737 
L 121.254178 57.478737 
L 124.901982 57.478737 
L 128.549785 57.478737 
L 132.197589 57.478737 
L 135.845393 57.478737 
L 139.493197 57.478737 
L 143.141001 57.478737 
L 146.788805 57.478737 
L 150.436609 57.478737 
L 154.084413 57.478737 
L 157.732217 57.478737 
L 161.38002 59.146105 
L 165.027824 59.146105 
L 168.675628 59.146105 
L 172.323432 59.146105 
L 175.971236 55.811368 
L 179.61904 55.811368 
L 183.266844 57.478737 
L 186.914648 107.499789 
L 190.562451 109.167158 
L 194.210255 110.834526 
L 197.858059 137.512421 
L 201.505863 130.842947 
L 205.153667 124.173474 
L 208.801471 117.504 
L 212.449275 120.838737 
L 216.097079 110.834526 
L 219.744883 114.169263 
L 223.392686 110.834526 
L 227.04049 120.838737 
L 230.688294 124.173474 
L 234.336098 110.834526 
L 237.983902 144.181895 
L 241.631706 205.874526 
L 245.27951 210.876632 
L 248.927314 222.548211 
L 252.575117 224.215579 
L 256.222921 224.215579 
L 259.870725 225.882947 
L 263.518529 225.882947 
L 267.166333 222.548211 
L 270.814137 227.550316 
L 274.461941 227.550316 
L 278.109745 215.878737 
L 281.757549 225.882947 
L 285.405352 225.882947 
L 289.053156 219.213474 
L 292.70096 214.211368 
L 296.348764 215.878737 
L 299.996568 220.880842 
L 303.644372 224.215579 
L 307.292176 225.882947 
L 310.93998 232.552421 
L 314.587783 219.213474 
L 318.235587 219.213474 
L 321.883391 222.548211 
L 325.531195 230.885053 
L 329.178999 232.552421 
L 332.826803 232.552421 
L 336.474607 240.889263 
L 340.122411 237.554526 
L 343.770215 234.219789 
L 347.418018 242.556632 
L 351.065822 240.889263 
L 354.713626 237.554526 
L 358.36143 242.556632 
L 362.009234 240.889263 
L 365.657038 242.556632 
L 369.304842 227.550316 
L 372.952646 225.882947 
L 376.600449 232.552421 
L 380.248253 227.550316 
L 383.896057 227.550316 
L 387.543861 234.219789 
L 391.191665 239.221895 
L 394.839469 242.556632 
L 398.487273 242.556632 
L 398.487273 204.207158 
L 398.487273 204.207158 
L 394.839469 199.205053 
L 391.191665 190.868211 
L 387.543861 192.535579 
L 383.896057 185.866105 
L 380.248253 184.198737 
L 376.600449 190.868211 
L 372.952646 182.531368 
L 369.304842 184.198737 
L 365.657038 200.872421 
L 362.009234 200.872421 
L 358.36143 202.539789 
L 354.713626 204.207158 
L 351.065822 202.539789 
L 347.418018 200.872421 
L 343.770215 197.537684 
L 340.122411 199.205053 
L 336.474607 197.537684 
L 332.826803 187.533474 
L 329.178999 192.535579 
L 325.531195 189.200842 
L 321.883391 177.529263 
L 318.235587 170.859789 
L 314.587783 167.525053 
L 310.93998 190.868211 
L 307.292176 187.533474 
L 303.644372 179.196632 
L 299.996568 174.194526 
L 296.348764 169.192421 
L 292.70096 169.192421 
L 289.053156 175.861895 
L 285.405352 180.864 
L 281.757549 180.864 
L 278.109745 169.192421 
L 274.461941 177.529263 
L 270.814137 175.861895 
L 267.166333 172.527158 
L 263.518529 170.859789 
L 259.870725 170.859789 
L 256.222921 165.857684 
L 252.575117 159.188211 
L 248.927314 150.851368 
L 245.27951 132.510316 
L 241.631706 117.504 
L 237.983902 65.815579 
L 234.336098 55.811368 
L 230.688294 57.478737 
L 227.04049 57.478737 
L 223.392686 57.478737 
L 219.744883 55.811368 
L 216.097079 57.478737 
L 212.449275 57.478737 
L 208.801471 57.478737 
L 205.153667 59.146105 
L 201.505863 59.146105 
L 197.858059 54.144 
L 194.210255 55.811368 
L 190.562451 55.811368 
L 186.914648 55.811368 
L 183.266844 57.478737 
L 179.61904 55.811368 
L 175.971236 55.811368 
L 172.323432 59.146105 
L 168.675628 59.146105 
L 165.027824 59.146105 
L 161.38002 59.146105 
L 157.732217 57.478737 
L 154.084413 57.478737 
L 150.436609 57.478737 
L 146.788805 57.478737 
L 143.141001 57.478737 
L 139.493197 57.478737 
L 135.845393 57.478737 
L 132.197589 57.478737 
L 128.549785 57.478737 
L 124.901982 57.478737 
L 121.254178 57.478737 
L 117.606374 57.478737 
L 113.95857 57.478737 
L 110.310766 57.478737 
L 106.662962 57.478737 
L 103.015158 57.478737 
L 99.367354 57.478737 
L 95.719551 57.478737 
L 92.071747 57.478737 
L 88.423943 57.478737 
L 84.776139 57.478737 
L 81.128335 57.478737 
L 77.480531 57.478737 
L 73.832727 57.478737 
z
" style="fill:#9467bd;"/>
   </g>
   <g id="PolyCollection_6">
    <path clip-path="url(#p2fc9347fae)" d="M 73.832727 57.478737 
L 73.832727 57.478737 
L 77.480531 57.478737 
L 81.128335 57.478737 
L 84.776139 57.478737 
L 88.423943 57.478737 
L 92.071747 57.478737 
L 95.719551 57.478737 
L 99.367354 57.478737 
L 103.015158 57.478737 
L 106.662962 57.478737 
L 110.310766 57.478737 
L 113.95857 57.478737 
L 117.606374 57.478737 
L 121.254178 57.478737 
L 124.901982 57.478737 
L 128.549785 57.478737 
L 132.197589 57.478737 
L 135.845393 57.478737 
L 139.493197 57.478737 
L 143.141001 57.478737 
L 146.788805 57.478737 
L 150.436609 57.478737 
L 154.084413 57.478737 
L 157.732217 57.478737 
L 161.38002 59.146105 
L 165.027824 59.146105 
L 168.675628 59.146105 
L 172.323432 59.146105 
L 175.971236 55.811368 
L 179.61904 55.811368 
L 183.266844 57.478737 
L 186.914648 55.811368 
L 190.562451 55.811368 
L 194.210255 55.811368 
L 197.858059 54.144 
L 201.505863 59.146105 
L 205.153667 59.146105 
L 208.801471 57.478737 
L 212.449275 57.478737 
L 216.097079 57.478737 
L 219.744883 55.811368 
L 223.392686 57.478737 
L 227.04049 57.478737 
L 230.688294 57.478737 
L 234.336098 55.811368 
L 237.983902 65.815579 
L 241.631706 117.504 
L 245.27951 132.510316 
L 248.927314 150.851368 
L 252.575117 159.188211 
L 256.222921 165.857684 
L 259.870725 170.859789 
L 263.518529 170.859789 
L 267.166333 172.527158 
L 270.814137 175.861895 
L 274.461941 177.529263 
L 278.109745 169.192421 
L 281.757549 180.864 
L 285.405352 180.864 
L 289.053156 175.861895 
L 292.70096 169.192421 
L 296.348764 169.192421 
L 299.996568 174.194526 
L 303.644372 179.196632 
L 307.292176 187.533474 
L 310.93998 190.868211 
L 314.587783 167.525053 
L 318.235587 170.859789 
L 321.883391 177.529263 
L 325.531195 189.200842 
L 329.178999 192.535579 
L 332.826803 187.533474 
L 336.474607 197.537684 
L 340.122411 199.205053 
L 343.770215 197.537684 
L 347.418018 200.872421 
L 351.065822 202.539789 
L 354.713626 204.207158 
L 358.36143 202.539789 
L 362.009234 200.872421 
L 365.657038 200.872421 
L 369.304842 184.198737 
L 372.952646 182.531368 
L 376.600449 190.868211 
L 380.248253 184.198737 
L 383.896057 185.866105 
L 387.543861 192.535579 
L 391.191665 190.868211 
L 394.839469 199.205053 
L 398.487273 204.207158 
L 398.487273 149.184 
L 398.487273 149.184 
L 394.839469 139.179789 
L 391.191665 135.845053 
L 387.543861 184.198737 
L 383.896057 132.510316 
L 380.248253 165.857684 
L 376.600449 169.192421 
L 372.952646 142.514526 
L 369.304842 139.179789 
L 365.657038 142.514526 
L 362.009234 152.518737 
L 358.36143 135.845053 
L 354.713626 127.508211 
L 351.065822 129.175579 
L 347.418018 165.857684 
L 343.770215 160.855579 
L 340.122411 169.192421 
L 336.474607 180.864 
L 332.826803 157.520842 
L 329.178999 174.194526 
L 325.531195 162.522947 
L 321.883391 140.847158 
L 318.235587 140.847158 
L 314.587783 135.845053 
L 310.93998 160.855579 
L 307.292176 160.855579 
L 303.644372 155.853474 
L 299.996568 145.849263 
L 296.348764 139.179789 
L 292.70096 145.849263 
L 289.053156 149.184 
L 285.405352 159.188211 
L 281.757549 149.184 
L 278.109745 144.181895 
L 274.461941 145.849263 
L 270.814137 145.849263 
L 267.166333 140.847158 
L 263.518529 137.512421 
L 259.870725 142.514526 
L 256.222921 135.845053 
L 252.575117 130.842947 
L 248.927314 125.840842 
L 245.27951 112.501895 
L 241.631706 95.828211 
L 237.983902 64.148211 
L 234.336098 55.811368 
L 230.688294 57.478737 
L 227.04049 57.478737 
L 223.392686 57.478737 
L 219.744883 55.811368 
L 216.097079 57.478737 
L 212.449275 57.478737 
L 208.801471 57.478737 
L 205.153667 59.146105 
L 201.505863 59.146105 
L 197.858059 54.144 
L 194.210255 55.811368 
L 190.562451 55.811368 
L 186.914648 55.811368 
L 183.266844 57.478737 
L 179.61904 55.811368 
L 175.971236 55.811368 
L 172.323432 59.146105 
L 168.675628 59.146105 
L 165.027824 59.146105 
L 161.38002 59.146105 
L 157.732217 57.478737 
L 154.084413 57.478737 
L 150.436609 57.478737 
L 146.788805 57.478737 
L 143.141001 57.478737 
L 139.493197 57.478737 
L 135.845393 57.478737 
L 132.197589 57.478737 
L 128.549785 57.478737 
L 124.901982 57.478737 
L 121.254178 57.478737 
L 117.606374 57.478737 
L 113.95857 57.478737 
L 110.310766 57.478737 
L 106.662962 57.478737 
L 103.015158 57.478737 
L 99.367354 57.478737 
L 95.719551 57.478737 
L 92.071747 57.478737 
L 88.423943 57.478737 
L 84.776139 57.478737 
L 81.128335 57.478737 
L 77.480531 57.478737 
L 73.832727 57.478737 
z
" style="fill:#8c564b;"/>
   </g>
   <g id="PolyCollection_7">
    <path clip-path="url(#p2fc9347fae)" d="M 73.832727 57.478737 
L 73.832727 57.478737 
L 77.480531 57.478737 
L 81.128335 57.478737 
L 84.776139 57.478737 
L 88.423943 57.478737 
L 92.071747 57.478737 
L 95.719551 57.478737 
L 99.367354 57.478737 
L 103.015158 57.478737 
L 106.662962 57.478737 
L 110.310766 57.478737 
L 113.95857 57.478737 
L 117.606374 57.478737 
L 121.254178 57.478737 
L 124.901982 57.478737 
L 128.549785 57.478737 
L 132.197589 57.478737 
L 135.845393 57.478737 
L 139.493197 57.478737 
L 143.141001 57.478737 
L 146.788805 57.478737 
L 150.436609 57.478737 
L 154.084413 57.478737 
L 157.732217 57.478737 
L 161.38002 59.146105 
L 165.027824 59.146105 
L 168.675628 59.146105 
L 172.323432 59.146105 
L 175.971236 55.811368 
L 179.61904 55.811368 
L 183.266844 57.478737 
L 186.914648 55.811368 
L 190.562451 55.811368 
L 194.210255 55.811368 
L 197.858059 54.144 
L 201.505863 59.146105 
L 205.153667 59.146105 
L 208.801471 57.478737 
L 212.449275 57.478737 
L 216.097079 57.478737 
L 219.744883 55.811368 
L 223.392686 57.478737 
L 227.04049 57.478737 
L 230.688294 57.478737 
L 234.336098 55.811368 
L 237.983902 64.148211 
L 241.631706 95.828211 
L 245.27951 112.501895 
L 248.927314 125.840842 
L 252.575117 130.842947 
L 256.222921 135.845053 
L 259.870725 142.514526 
L 263.518529 137.512421 
L 267.166333 140.847158 
L 270.814137 145.849263 
L 274.461941 145.849263 
L 278.109745 144.181895 
L 281.757549 149.184 
L 285.405352 159.188211 
L 289.053156 149.184 
L 292.70096 145.849263 
L 296.348764 139.179789 
L 299.996568 145.849263 
L 303.644372 155.853474 
L 307.292176 160.855579 
L 310.93998 160.855579 
L 314.587783 135.845053 
L 318.235587 140.847158 
L 321.883391 140.847158 
L 325.531195 162.522947 
L 329.178999 174.194526 
L 332.826803 157.520842 
L 336.474607 180.864 
L 340.122411 169.192421 
L 343.770215 160.855579 
L 347.418018 165.857684 
L 351.065822 129.175579 
L 354.713626 127.508211 
L 358.36143 135.845053 
L 362.009234 152.518737 
L 365.657038 142.514526 
L 369.304842 139.179789 
L 372.952646 142.514526 
L 376.600449 169.192421 
L 380.248253 165.857684 
L 383.896057 132.510316 
L 387.543861 184.198737 
L 391.191665 135.845053 
L 394.839469 139.179789 
L 398.487273 149.184 
L 398.487273 149.184 
L 398.487273 149.184 
L 394.839469 139.179789 
L 391.191665 135.845053 
L 387.543861 184.198737 
L 383.896057 132.510316 
L 380.248253 165.857684 
L 376.600449 169.192421 
L 372.952646 142.514526 
L 369.304842 139.179789 
L 365.657038 142.514526 
L 362.009234 152.518737 
L 358.36143 135.845053 
L 354.713626 127.508211 
L 351.065822 129.175579 
L 347.418018 165.857684 
L 343.770215 160.855579 
L 340.122411 169.192421 
L 336.474607 180.864 
L 332.826803 157.520842 
L 329.178999 174.194526 
L 325.531195 162.522947 
L 321.883391 140.847158 
L 318.235587 140.847158 
L 314.587783 135.845053 
L 310.93998 124.173474 
L 307.292176 117.504 
L 303.644372 100.830316 
L 299.996568 100.830316 
L 296.348764 99.162947 
L 292.70096 94.160842 
L 289.053156 97.495579 
L 285.405352 102.497684 
L 281.757549 100.830316 
L 278.109745 92.493474 
L 274.461941 95.828211 
L 270.814137 94.160842 
L 267.166333 90.826105 
L 263.518529 85.824 
L 259.870725 90.826105 
L 256.222921 89.158737 
L 252.575117 80.821895 
L 248.927314 75.819789 
L 245.27951 60.813474 
L 241.631706 57.478737 
L 237.983902 55.811368 
L 234.336098 55.811368 
L 230.688294 57.478737 
L 227.04049 57.478737 
L 223.392686 57.478737 
L 219.744883 55.811368 
L 216.097079 57.478737 
L 212.449275 57.478737 
L 208.801471 57.478737 
L 205.153667 59.146105 
L 201.505863 59.146105 
L 197.858059 54.144 
L 194.210255 55.811368 
L 190.562451 55.811368 
L 186.914648 55.811368 
L 183.266844 57.478737 
L 179.61904 55.811368 
L 175.971236 55.811368 
L 172.323432 59.146105 
L 168.675628 59.146105 
L 165.027824 59.146105 
L 161.38002 59.146105 
L 157.732217 57.478737 
L 154.084413 57.478737 
L 150.436609 57.478737 
L 146.788805 57.478737 
L 143.141001 57.478737 
L 139.493197 57.478737 
L 135.845393 57.478737 
L 132.197589 57.478737 
L 128.549785 57.478737 
L 124.901982 57.478737 
L 121.254178 57.478737 
L 117.606374 57.478737 
L 113.95857 57.478737 
L 110.310766 57.478737 
L 106.662962 57.478737 
L 103.015158 57.478737 
L 99.367354 57.478737 
L 95.719551 57.478737 
L 92.071747 57.478737 
L 88.423943 57.478737 
L 84.776139 57.478737 
L 81.128335 57.478737 
L 77.480531 57.478737 
L 73.832727 57.478737 
z
" style="fill:#e377c2;"/>
   </g>
   <g id="PolyCollection_8">
    <path clip-path="url(#p2fc9347fae)" d="M 73.832727 57.478737 
L 73.832727 57.478737 
L 77.480531 57.478737 
L 81.128335 57.478737 
L 84.776139 57.478737 
L 88.423943 57.478737 
L 92.071747 57.478737 
L 95.719551 57.478737 
L 99.367354 57.478737 
L 103.015158 57.478737 
L 106.662962 57.478737 
L 110.310766 57.478737 
L 113.95857 57.478737 
L 117.606374 57.478737 
L 121.254178 57.478737 
L 124.901982 57.478737 
L 128.549785 57.478737 
L 132.197589 57.478737 
L 135.845393 57.478737 
L 139.493197 57.478737 
L 143.141001 57.478737 
L 146.788805 57.478737 
L 150.436609 57.478737 
L 154.084413 57.478737 
L 157.732217 57.478737 
L 161.38002 59.146105 
L 165.027824 59.146105 
L 168.675628 59.146105 
L 172.323432 59.146105 
L 175.971236 55.811368 
L 179.61904 55.811368 
L 183.266844 57.478737 
L 186.914648 55.811368 
L 190.562451 55.811368 
L 194.210255 55.811368 
L 197.858059 54.144 
L 201.505863 59.146105 
L 205.153667 59.146105 
L 208.801471 57.478737 
L 212.449275 57.478737 
L 216.097079 57.478737 
L 219.744883 55.811368 
L 223.392686 57.478737 
L 227.04049 57.478737 
L 230.688294 57.478737 
L 234.336098 55.811368 
L 237.983902 55.811368 
L 241.631706 57.478737 
L 245.27951 60.813474 
L 248.927314 75.819789 
L 252.575117 80.821895 
L 256.222921 89.158737 
L 259.870725 90.826105 
L 263.518529 85.824 
L 267.166333 90.826105 
L 270.814137 94.160842 
L 274.461941 95.828211 
L 278.109745 92.493474 
L 281.757549 100.830316 
L 285.405352 102.497684 
L 289.053156 97.495579 
L 292.70096 94.160842 
L 296.348764 99.162947 
L 299.996568 100.830316 
L 303.644372 100.830316 
L 307.292176 117.504 
L 310.93998 124.173474 
L 314.587783 135.845053 
L 318.235587 140.847158 
L 321.883391 140.847158 
L 325.531195 162.522947 
L 329.178999 174.194526 
L 332.826803 157.520842 
L 336.474607 180.864 
L 340.122411 169.192421 
L 343.770215 160.855579 
L 347.418018 165.857684 
L 351.065822 129.175579 
L 354.713626 127.508211 
L 358.36143 135.845053 
L 362.009234 152.518737 
L 365.657038 142.514526 
L 369.304842 139.179789 
L 372.952646 142.514526 
L 376.600449 169.192421 
L 380.248253 165.857684 
L 383.896057 132.510316 
L 387.543861 184.198737 
L 391.191665 135.845053 
L 394.839469 139.179789 
L 398.487273 149.184 
L 398.487273 127.508211 
L 398.487273 127.508211 
L 394.839469 125.840842 
L 391.191665 127.508211 
L 387.543861 134.177684 
L 383.896057 125.840842 
L 380.248253 125.840842 
L 376.600449 122.506105 
L 372.952646 112.501895 
L 369.304842 119.171368 
L 365.657038 127.508211 
L 362.009234 130.842947 
L 358.36143 127.508211 
L 354.713626 107.499789 
L 351.065822 122.506105 
L 347.418018 147.516632 
L 343.770215 142.514526 
L 340.122411 149.184 
L 336.474607 177.529263 
L 332.826803 142.514526 
L 329.178999 95.828211 
L 325.531195 99.162947 
L 321.883391 102.497684 
L 318.235587 104.165053 
L 314.587783 97.495579 
L 310.93998 87.491368 
L 307.292176 82.489263 
L 303.644372 67.482947 
L 299.996568 72.485053 
L 296.348764 62.480842 
L 292.70096 59.146105 
L 289.053156 57.478737 
L 285.405352 57.478737 
L 281.757549 59.146105 
L 278.109745 55.811368 
L 274.461941 57.478737 
L 270.814137 57.478737 
L 267.166333 57.478737 
L 263.518529 54.144 
L 259.870725 55.811368 
L 256.222921 59.146105 
L 252.575117 59.146105 
L 248.927314 55.811368 
L 245.27951 55.811368 
L 241.631706 57.478737 
L 237.983902 55.811368 
L 234.336098 55.811368 
L 230.688294 57.478737 
L 227.04049 57.478737 
L 223.392686 57.478737 
L 219.744883 55.811368 
L 216.097079 57.478737 
L 212.449275 57.478737 
L 208.801471 57.478737 
L 205.153667 59.146105 
L 201.505863 59.146105 
L 197.858059 54.144 
L 194.210255 55.811368 
L 190.562451 55.811368 
L 186.914648 55.811368 
L 183.266844 57.478737 
L 179.61904 55.811368 
L 175.971236 55.811368 
L 172.323432 59.146105 
L 168.675628 59.146105 
L 165.027824 59.146105 
L 161.38002 59.146105 
L 157.732217 57.478737 
L 154.084413 57.478737 
L 150.436609 57.478737 
L 146.788805 57.478737 
L 143.141001 57.478737 
L 139.493197 57.478737 
L 135.845393 57.478737 
L 132.197589 57.478737 
L 128.549785 57.478737 
L 124.901982 57.478737 
L 121.254178 57.478737 
L 117.606374 57.478737 
L 113.95857 57.478737 
L 110.310766 57.478737 
L 106.662962 57.478737 
L 103.015158 57.478737 
L 99.367354 57.478737 
L 95.719551 57.478737 
L 92.071747 57.478737 
L 88.423943 57.478737 
L 84.776139 57.478737 
L 81.128335 57.478737 
L 77.480531 57.478737 
L 73.832727 57.478737 
z
" style="fill:#7f7f7f;"/>
   </g>
   <g id="PolyCollection_9">
    <path clip-path="url(#p2fc9347fae)" d="M 73.832727 57.478737 
L 73.832727 57.478737 
L 77.480531 57.478737 
L 81.128335 57.478737 
L 84.776139 57.478737 
L 88.423943 57.478737 
L 92.071747 57.478737 
L 95.719551 57.478737 
L 99.367354 57.478737 
L 103.015158 57.478737 
L 106.662962 57.478737 
L 110.310766 57.478737 
L 113.95857 57.478737 
L 117.606374 57.478737 
L 121.254178 57.478737 
L 124.901982 57.478737 
L 128.549785 57.478737 
L 132.197589 57.478737 
L 135.845393 57.478737 
L 139.493197 57.478737 
L 143.141001 57.478737 
L 146.788805 57.478737 
L 150.436609 57.478737 
L 154.084413 57.478737 
L 157.732217 57.478737 
L 161.38002 59.146105 
L 165.027824 59.146105 
L 168.675628 59.146105 
L 172.323432 59.146105 
L 175.971236 55.811368 
L 179.61904 55.811368 
L 183.266844 57.478737 
L 186.914648 55.811368 
L 190.562451 55.811368 
L 194.210255 55.811368 
L 197.858059 54.144 
L 201.505863 59.146105 
L 205.153667 59.146105 
L 208.801471 57.478737 
L 212.449275 57.478737 
L 216.097079 57.478737 
L 219.744883 55.811368 
L 223.392686 57.478737 
L 227.04049 57.478737 
L 230.688294 57.478737 
L 234.336098 55.811368 
L 237.983902 55.811368 
L 241.631706 57.478737 
L 245.27951 55.811368 
L 248.927314 55.811368 
L 252.575117 59.146105 
L 256.222921 59.146105 
L 259.870725 55.811368 
L 263.518529 54.144 
L 267.166333 57.478737 
L 270.814137 57.478737 
L 274.461941 57.478737 
L 278.109745 55.811368 
L 281.757549 59.146105 
L 285.405352 57.478737 
L 289.053156 57.478737 
L 292.70096 59.146105 
L 296.348764 62.480842 
L 299.996568 72.485053 
L 303.644372 67.482947 
L 307.292176 82.489263 
L 310.93998 87.491368 
L 314.587783 97.495579 
L 318.235587 104.165053 
L 321.883391 102.497684 
L 325.531195 99.162947 
L 329.178999 95.828211 
L 332.826803 142.514526 
L 336.474607 177.529263 
L 340.122411 149.184 
L 343.770215 142.514526 
L 347.418018 147.516632 
L 351.065822 122.506105 
L 354.713626 107.499789 
L 358.36143 127.508211 
L 362.009234 130.842947 
L 365.657038 127.508211 
L 369.304842 119.171368 
L 372.952646 112.501895 
L 376.600449 122.506105 
L 380.248253 125.840842 
L 383.896057 125.840842 
L 387.543861 134.177684 
L 391.191665 127.508211 
L 394.839469 125.840842 
L 398.487273 127.508211 
L 398.487273 127.508211 
L 398.487273 127.508211 
L 394.839469 125.840842 
L 391.191665 127.508211 
L 387.543861 134.177684 
L 383.896057 125.840842 
L 380.248253 125.840842 
L 376.600449 122.506105 
L 372.952646 112.501895 
L 369.304842 97.495579 
L 365.657038 104.165053 
L 362.009234 99.162947 
L 358.36143 104.165053 
L 354.713626 90.826105 
L 351.065822 100.830316 
L 347.418018 105.832421 
L 343.770215 109.167158 
L 340.122411 122.506105 
L 336.474607 145.849263 
L 332.826803 59.146105 
L 329.178999 55.811368 
L 325.531195 55.811368 
L 321.883391 57.478737 
L 318.235587 57.478737 
L 314.587783 55.811368 
L 310.93998 55.811368 
L 307.292176 57.478737 
L 303.644372 59.146105 
L 299.996568 54.144 
L 296.348764 55.811368 
L 292.70096 59.146105 
L 289.053156 57.478737 
L 285.405352 57.478737 
L 281.757549 59.146105 
L 278.109745 55.811368 
L 274.461941 57.478737 
L 270.814137 57.478737 
L 267.166333 57.478737 
L 263.518529 54.144 
L 259.870725 55.811368 
L 256.222921 59.146105 
L 252.575117 59.146105 
L 248.927314 55.811368 
L 245.27951 55.811368 
L 241.631706 57.478737 
L 237.983902 55.811368 
L 234.336098 55.811368 
L 230.688294 57.478737 
L 227.04049 57.478737 
L 223.392686 57.478737 
L 219.744883 55.811368 
L 216.097079 57.478737 
L 212.449275 57.478737 
L 208.801471 57.478737 
L 205.153667 59.146105 
L 201.505863 59.146105 
L 197.858059 54.144 
L 194.210255 55.811368 
L 190.562451 55.811368 
L 186.914648 55.811368 
L 183.266844 57.478737 
L 179.61904 55.811368 
L 175.971236 55.811368 
L 172.323432 59.146105 
L 168.675628 59.146105 
L 165.027824 59.146105 
L 161.38002 59.146105 
L 157.732217 57.478737 
L 154.084413 57.478737 
L 150.436609 57.478737 
L 146.788805 57.478737 
L 143.141001 57.478737 
L 139.493197 57.478737 
L 135.845393 57.478737 
L 132.197589 57.478737 
L 128.549785 57.478737 
L 124.901982 57.478737 
L 121.254178 57.478737 
L 117.606374 57.478737 
L 113.95857 57.478737 
L 110.310766 57.478737 
L 106.662962 57.478737 
L 103.015158 57.478737 
L 99.367354 57.478737 
L 95.719551 57.478737 
L 92.071747 57.478737 
L 88.423943 57.478737 
L 84.776139 57.478737 
L 81.128335 57.478737 
L 77.480531 57.478737 
L 73.832727 57.478737 
z
" style="fill:#bcbd22;"/>
   </g>
   <g id="PolyCollection_10">
    <path clip-path="url(#p2fc9347fae)" d="M 73.832727 57.478737 
L 73.832727 57.478737 
L 77.480531 57.478737 
L 81.128335 57.478737 
L 84.776139 57.478737 
L 88.423943 57.478737 
L 92.071747 57.478737 
L 95.719551 57.478737 
L 99.367354 57.478737 
L 103.015158 57.478737 
L 106.662962 57.478737 
L 110.310766 57.478737 
L 113.95857 57.478737 
L 117.606374 57.478737 
L 121.254178 57.478737 
L 124.901982 57.478737 
L 128.549785 57.478737 
L 132.197589 57.478737 
L 135.845393 57.478737 
L 139.493197 57.478737 
L 143.141001 57.478737 
L 146.788805 57.478737 
L 150.436609 57.478737 
L 154.084413 57.478737 
L 157.732217 57.478737 
L 161.38002 59.146105 
L 165.027824 59.146105 
L 168.675628 59.146105 
L 172.323432 59.146105 
L 175.971236 55.811368 
L 179.61904 55.811368 
L 183.266844 57.478737 
L 186.914648 55.811368 
L 190.562451 55.811368 
L 194.210255 55.811368 
L 197.858059 54.144 
L 201.505863 59.146105 
L 205.153667 59.146105 
L 208.801471 57.478737 
L 212.449275 57.478737 
L 216.097079 57.478737 
L 219.744883 55.811368 
L 223.392686 57.478737 
L 227.04049 57.478737 
L 230.688294 57.478737 
L 234.336098 55.811368 
L 237.983902 55.811368 
L 241.631706 57.478737 
L 245.27951 55.811368 
L 248.927314 55.811368 
L 252.575117 59.146105 
L 256.222921 59.146105 
L 259.870725 55.811368 
L 263.518529 54.144 
L 267.166333 57.478737 
L 270.814137 57.478737 
L 274.461941 57.478737 
L 278.109745 55.811368 
L 281.757549 59.146105 
L 285.405352 57.478737 
L 289.053156 57.478737 
L 292.70096 59.146105 
L 296.348764 55.811368 
L 299.996568 54.144 
L 303.644372 59.146105 
L 307.292176 57.478737 
L 310.93998 55.811368 
L 314.587783 55.811368 
L 318.235587 57.478737 
L 321.883391 57.478737 
L 325.531195 55.811368 
L 329.178999 55.811368 
L 332.826803 59.146105 
L 336.474607 145.849263 
L 340.122411 122.506105 
L 343.770215 109.167158 
L 347.418018 105.832421 
L 351.065822 100.830316 
L 354.713626 90.826105 
L 358.36143 104.165053 
L 362.009234 99.162947 
L 365.657038 104.165053 
L 369.304842 97.495579 
L 372.952646 112.501895 
L 376.600449 122.506105 
L 380.248253 125.840842 
L 383.896057 125.840842 
L 387.543861 134.177684 
L 391.191665 127.508211 
L 394.839469 125.840842 
L 398.487273 127.508211 
L 398.487273 90.826105 
L 398.487273 90.826105 
L 394.839469 84.156632 
L 391.191665 77.487158 
L 387.543861 89.158737 
L 383.896057 80.821895 
L 380.248253 87.491368 
L 376.600449 80.821895 
L 372.952646 75.819789 
L 369.304842 65.815579 
L 365.657038 65.815579 
L 362.009234 60.813474 
L 358.36143 57.478737 
L 354.713626 57.478737 
L 351.065822 57.478737 
L 347.418018 59.146105 
L 343.770215 57.478737 
L 340.122411 55.811368 
L 336.474607 55.811368 
L 332.826803 57.478737 
L 329.178999 55.811368 
L 325.531195 55.811368 
L 321.883391 57.478737 
L 318.235587 57.478737 
L 314.587783 55.811368 
L 310.93998 55.811368 
L 307.292176 57.478737 
L 303.644372 59.146105 
L 299.996568 54.144 
L 296.348764 55.811368 
L 292.70096 59.146105 
L 289.053156 57.478737 
L 285.405352 57.478737 
L 281.757549 59.146105 
L 278.109745 55.811368 
L 274.461941 57.478737 
L 270.814137 57.478737 
L 267.166333 57.478737 
L 263.518529 54.144 
L 259.870725 55.811368 
L 256.222921 59.146105 
L 252.575117 59.146105 
L 248.927314 55.811368 
L 245.27951 55.811368 
L 241.631706 57.478737 
L 237.983902 55.811368 
L 234.336098 55.811368 
L 230.688294 57.478737 
L 227.04049 57.478737 
L 223.392686 57.478737 
L 219.744883 55.811368 
L 216.097079 57.478737 
L 212.449275 57.478737 
L 208.801471 57.478737 
L 205.153667 59.146105 
L 201.505863 59.146105 
L 197.858059 54.144 
L 194.210255 55.811368 
L 190.562451 55.811368 
L 186.914648 55.811368 
L 183.266844 57.478737 
L 179.61904 55.811368 
L 175.971236 55.811368 
L 172.323432 59.146105 
L 168.675628 59.146105 
L 165.027824 59.146105 
L 161.38002 59.146105 
L 157.732217 57.478737 
L 154.084413 57.478737 
L 150.436609 57.478737 
L 146.788805 57.478737 
L 143.141001 57.478737 
L 139.493197 57.478737 
L 135.845393 57.478737 
L 132.197589 57.478737 
L 128.549785 57.478737 
L 124.901982 57.478737 
L 121.254178 57.478737 
L 117.606374 57.478737 
L 113.95857 57.478737 
L 110.310766 57.478737 
L 106.662962 57.478737 
L 103.015158 57.478737 
L 99.367354 57.478737 
L 95.719551 57.478737 
L 92.071747 57.478737 
L 88.423943 57.478737 
L 84.776139 57.478737 
L 81.128335 57.478737 
L 77.480531 57.478737 
L 73.832727 57.478737 
z
" style="fill:#17becf;"/>
   </g>
   <g id="PolyCollection_11">
    <path clip-path="url(#p2fc9347fae)" d="M 73.832727 57.478737 
L 73.832727 57.478737 
L 77.480531 57.478737 
L 81.128335 57.478737 
L 84.776139 57.478737 
L 88.423943 57.478737 
L 92.071747 57.478737 
L 95.719551 57.478737 
L 99.367354 57.478737 
L 103.015158 57.478737 
L 106.662962 57.478737 
L 110.310766 57.478737 
L 113.95857 57.478737 
L 117.606374 57.478737 
L 121.254178 57.478737 
L 124.901982 57.478737 
L 128.549785 57.478737 
L 132.197589 57.478737 
L 135.845393 57.478737 
L 139.493197 57.478737 
L 143.141001 57.478737 
L 146.788805 57.478737 
L 150.436609 57.478737 
L 154.084413 57.478737 
L 157.732217 57.478737 
L 161.38002 59.146105 
L 165.027824 59.146105 
L 168.675628 59.146105 
L 172.323432 59.146105 
L 175.971236 55.811368 
L 179.61904 55.811368 
L 183.266844 57.478737 
L 186.914648 55.811368 
L 190.562451 55.811368 
L 194.210255 55.811368 
L 197.858059 54.144 
L 201.505863 59.146105 
L 205.153667 59.146105 
L 208.801471 57.478737 
L 212.449275 57.478737 
L 216.097079 57.478737 
L 219.744883 55.811368 
L 223.392686 57.478737 
L 227.04049 57.478737 
L 230.688294 57.478737 
L 234.336098 55.811368 
L 237.983902 55.811368 
L 241.631706 57.478737 
L 245.27951 55.811368 
L 248.927314 55.811368 
L 252.575117 59.146105 
L 256.222921 59.146105 
L 259.870725 55.811368 
L 263.518529 54.144 
L 267.166333 57.478737 
L 270.814137 57.478737 
L 274.461941 57.478737 
L 278.109745 55.811368 
L 281.757549 59.146105 
L 285.405352 57.478737 
L 289.053156 57.478737 
L 292.70096 59.146105 
L 296.348764 55.811368 
L 299.996568 54.144 
L 303.644372 59.146105 
L 307.292176 57.478737 
L 310.93998 55.811368 
L 314.587783 55.811368 
L 318.235587 57.478737 
L 321.883391 57.478737 
L 325.531195 55.811368 
L 329.178999 55.811368 
L 332.826803 57.478737 
L 336.474607 55.811368 
L 340.122411 55.811368 
L 343.770215 57.478737 
L 347.418018 59.146105 
L 351.065822 57.478737 
L 354.713626 57.478737 
L 358.36143 57.478737 
L 362.009234 60.813474 
L 365.657038 65.815579 
L 369.304842 65.815579 
L 372.952646 75.819789 
L 376.600449 80.821895 
L 380.248253 87.491368 
L 383.896057 80.821895 
L 387.543861 89.158737 
L 391.191665 77.487158 
L 394.839469 84.156632 
L 398.487273 90.826105 
L 398.487273 57.478737 
L 398.487273 57.478737 
L 394.839469 55.811368 
L 391.191665 55.811368 
L 387.543861 59.146105 
L 383.896057 57.478737 
L 380.248253 60.813474 
L 376.600449 60.813474 
L 372.952646 59.146105 
L 369.304842 57.478737 
L 365.657038 59.146105 
L 362.009234 57.478737 
L 358.36143 57.478737 
L 354.713626 57.478737 
L 351.065822 57.478737 
L 347.418018 59.146105 
L 343.770215 57.478737 
L 340.122411 55.811368 
L 336.474607 55.811368 
L 332.826803 57.478737 
L 329.178999 55.811368 
L 325.531195 55.811368 
L 321.883391 57.478737 
L 318.235587 57.478737 
L 314.587783 55.811368 
L 310.93998 55.811368 
L 307.292176 57.478737 
L 303.644372 59.146105 
L 299.996568 54.144 
L 296.348764 55.811368 
L 292.70096 59.146105 
L 289.053156 57.478737 
L 285.405352 57.478737 
L 281.757549 59.146105 
L 278.109745 55.811368 
L 274.461941 57.478737 
L 270.814137 57.478737 
L 267.166333 57.478737 
L 263.518529 54.144 
L 259.870725 55.811368 
L 256.222921 59.146105 
L 252.575117 59.146105 
L 248.927314 55.811368 
L 245.27951 55.811368 
L 241.631706 57.478737 
L 237.983902 55.811368 
L 234.336098 55.811368 
L 230.688294 57.478737 
L 227.04049 57.478737 
L 223.392686 57.478737 
L 219.744883 55.811368 
L 216.097079 57.478737 
L 212.449275 57.478737 
L 208.801471 57.478737 
L 205.153667 59.146105 
L 201.505863 59.146105 
L 197.858059 54.144 
L 194.210255 55.811368 
L 190.562451 55.811368 
L 186.914648 55.811368 
L 183.266844 57.478737 
L 179.61904 55.811368 
L 175.971236 55.811368 
L 172.323432 59.146105 
L 168.675628 59.146105 
L 165.027824 59.146105 
L 161.38002 59.146105 
L 157.732217 57.478737 
L 154.084413 57.478737 
L 150.436609 57.478737 
L 146.788805 57.478737 
L 143.141001 57.478737 
L 139.493197 57.478737 
L 135.845393 57.478737 
L 132.197589 57.478737 
L 128.549785 57.478737 
L 124.901982 57.478737 
L 121.254178 57.478737 
L 117.606374 57.478737 
L 113.95857 57.478737 
L 110.310766 57.478737 
L 106.662962 57.478737 
L 103.015158 57.478737 
L 99.367354 57.478737 
L 95.719551 57.478737 
L 92.071747 57.478737 
L 88.423943 57.478737 
L 84.776139 57.478737 
L 81.128335 57.478737 
L 77.480531 57.478737 
L 73.832727 57.478737 
z
" style="fill:#1f77b4;"/>
   </g>
   <g id="matplotlib.axis_1">
    <g id="xtick_1">
     <g id="line2d_1">
      <defs>
       <path d="M 0 0 
L 0 3.5 
" id="m6d42e08de9" style="stroke:#000000;stroke-width:0.8;"/>
      </defs>
      <g>
       <use style="stroke:#000000;stroke-width:0.8;" x="73.832727" xlink:href="#m6d42e08de9" y="307.584"/>
      </g>
     </g>
     <g id="text_1">
      <!-- 0 -->
      <defs>
       <path d="M 31.78125 66.40625 
Q 24.171875 66.40625 20.328125 58.90625 
Q 16.5 51.421875 16.5 36.375 
Q 16.5 21.390625 20.328125 13.890625 
Q 24.171875 6.390625 31.78125 6.390625 
Q 39.453125 6.390625 43.28125 13.890625 
Q 47.125 21.390625 47.125 36.375 
Q 47.125 51.421875 43.28125 58.90625 
Q 39.453125 66.40625 31.78125 66.40625 
z
M 31.78125 74.21875 
Q 44.046875 74.21875 50.515625 64.515625 
Q 56.984375 54.828125 56.984375 36.375 
Q 56.984375 17.96875 50.515625 8.265625 
Q 44.046875 -1.421875 31.78125 -1.421875 
Q 19.53125 -1.421875 13.0625 8.265625 
Q 6.59375 17.96875 6.59375 36.375 
Q 6.59375 54.828125 13.0625 64.515625 
Q 19.53125 74.21875 31.78125 74.21875 
z
" id="DejaVuSans-30"/>
      </defs>
      <g transform="translate(70.651477 322.182437)scale(0.1 -0.1)">
       <use xlink:href="#DejaVuSans-30"/>
      </g>
     </g>
    </g>
    <g id="xtick_2">
     <g id="line2d_2">
      <g>
       <use style="stroke:#000000;stroke-width:0.8;" x="146.788805" xlink:href="#m6d42e08de9" y="307.584"/>
      </g>
     </g>
     <g id="text_2">
      <!-- 20 -->
      <defs>
       <path d="M 19.1875 8.296875 
L 53.609375 8.296875 
L 53.609375 0 
L 7.328125 0 
L 7.328125 8.296875 
Q 12.9375 14.109375 22.625 23.890625 
Q 32.328125 33.6875 34.8125 36.53125 
Q 39.546875 41.84375 41.421875 45.53125 
Q 43.3125 49.21875 43.3125 52.78125 
Q 43.3125 58.59375 39.234375 62.25 
Q 35.15625 65.921875 28.609375 65.921875 
Q 23.96875 65.921875 18.8125 64.3125 
Q 13.671875 62.703125 7.8125 59.421875 
L 7.8125 69.390625 
Q 13.765625 71.78125 18.9375 73 
Q 24.125 74.21875 28.421875 74.21875 
Q 39.75 74.21875 46.484375 68.546875 
Q 53.21875 62.890625 53.21875 53.421875 
Q 53.21875 48.921875 51.53125 44.890625 
Q 49.859375 40.875 45.40625 35.40625 
Q 44.1875 33.984375 37.640625 27.21875 
Q 31.109375 20.453125 19.1875 8.296875 
z
" id="DejaVuSans-32"/>
      </defs>
      <g transform="translate(140.426305 322.182437)scale(0.1 -0.1)">
       <use xlink:href="#DejaVuSans-32"/>
       <use x="63.623047" xlink:href="#DejaVuSans-30"/>
      </g>
     </g>
    </g>
    <g id="xtick_3">
     <g id="line2d_3">
      <g>
       <use style="stroke:#000000;stroke-width:0.8;" x="219.744883" xlink:href="#m6d42e08de9" y="307.584"/>
      </g>
     </g>
     <g id="text_3">
      <!-- 40 -->
      <defs>
       <path d="M 37.796875 64.3125 
L 12.890625 25.390625 
L 37.796875 25.390625 
z
M 35.203125 72.90625 
L 47.609375 72.90625 
L 47.609375 25.390625 
L 58.015625 25.390625 
L 58.015625 17.1875 
L 47.609375 17.1875 
L 47.609375 0 
L 37.796875 0 
L 37.796875 17.1875 
L 4.890625 17.1875 
L 4.890625 26.703125 
z
" id="DejaVuSans-34"/>
      </defs>
      <g transform="translate(213.382383 322.182437)scale(0.1 -0.1)">
       <use xlink:href="#DejaVuSans-34"/>
       <use x="63.623047" xlink:href="#DejaVuSans-30"/>
      </g>
     </g>
    </g>
    <g id="xtick_4">
     <g id="line2d_4">
      <g>
       <use style="stroke:#000000;stroke-width:0.8;" x="292.70096" xlink:href="#m6d42e08de9" y="307.584"/>
      </g>
     </g>
     <g id="text_4">
      <!-- 60 -->
      <defs>
       <path d="M 33.015625 40.375 
Q 26.375 40.375 22.484375 35.828125 
Q 18.609375 31.296875 18.609375 23.390625 
Q 18.609375 15.53125 22.484375 10.953125 
Q 26.375 6.390625 33.015625 6.390625 
Q 39.65625 6.390625 43.53125 10.953125 
Q 47.40625 15.53125 47.40625 23.390625 
Q 47.40625 31.296875 43.53125 35.828125 
Q 39.65625 40.375 33.015625 40.375 
z
M 52.59375 71.296875 
L 52.59375 62.3125 
Q 48.875 64.0625 45.09375 64.984375 
Q 41.3125 65.921875 37.59375 65.921875 
Q 27.828125 65.921875 22.671875 59.328125 
Q 17.53125 52.734375 16.796875 39.40625 
Q 19.671875 43.65625 24.015625 45.921875 
Q 28.375 48.1875 33.59375 48.1875 
Q 44.578125 48.1875 50.953125 41.515625 
Q 57.328125 34.859375 57.328125 23.390625 
Q 57.328125 12.15625 50.6875 5.359375 
Q 44.046875 -1.421875 33.015625 -1.421875 
Q 20.359375 -1.421875 13.671875 8.265625 
Q 6.984375 17.96875 6.984375 36.375 
Q 6.984375 53.65625 15.1875 63.9375 
Q 23.390625 74.21875 37.203125 74.21875 
Q 40.921875 74.21875 44.703125 73.484375 
Q 48.484375 72.75 52.59375 71.296875 
z
" id="DejaVuSans-36"/>
      </defs>
      <g transform="translate(286.33846 322.182437)scale(0.1 -0.1)">
       <use xlink:href="#DejaVuSans-36"/>
       <use x="63.623047" xlink:href="#DejaVuSans-30"/>
      </g>
     </g>
    </g>
    <g id="xtick_5">
     <g id="line2d_5">
      <g>
       <use style="stroke:#000000;stroke-width:0.8;" x="365.657038" xlink:href="#m6d42e08de9" y="307.584"/>
      </g>
     </g>
     <g id="text_5">
      <!-- 80 -->
      <defs>
       <path d="M 31.78125 34.625 
Q 24.75 34.625 20.71875 30.859375 
Q 16.703125 27.09375 16.703125 20.515625 
Q 16.703125 13.921875 20.71875 10.15625 
Q 24.75 6.390625 31.78125 6.390625 
Q 38.8125 6.390625 42.859375 10.171875 
Q 46.921875 13.96875 46.921875 20.515625 
Q 46.921875 27.09375 42.890625 30.859375 
Q 38.875 34.625 31.78125 34.625 
z
M 21.921875 38.8125 
Q 15.578125 40.375 12.03125 44.71875 
Q 8.5 49.078125 8.5 55.328125 
Q 8.5 64.0625 14.71875 69.140625 
Q 20.953125 74.21875 31.78125 74.21875 
Q 42.671875 74.21875 48.875 69.140625 
Q 55.078125 64.0625 55.078125 55.328125 
Q 55.078125 49.078125 51.53125 44.71875 
Q 48 40.375 41.703125 38.8125 
Q 48.828125 37.15625 52.796875 32.3125 
Q 56.78125 27.484375 56.78125 20.515625 
Q 56.78125 9.90625 50.3125 4.234375 
Q 43.84375 -1.421875 31.78125 -1.421875 
Q 19.734375 -1.421875 13.25 4.234375 
Q 6.78125 9.90625 6.78125 20.515625 
Q 6.78125 27.484375 10.78125 32.3125 
Q 14.796875 37.15625 21.921875 38.8125 
z
M 18.3125 54.390625 
Q 18.3125 48.734375 21.84375 45.5625 
Q 25.390625 42.390625 31.78125 42.390625 
Q 38.140625 42.390625 41.71875 45.5625 
Q 45.3125 48.734375 45.3125 54.390625 
Q 45.3125 60.0625 41.71875 63.234375 
Q 38.140625 66.40625 31.78125 66.40625 
Q 25.390625 66.40625 21.84375 63.234375 
Q 18.3125 60.0625 18.3125 54.390625 
z
" id="DejaVuSans-38"/>
      </defs>
      <g transform="translate(359.294538 322.182437)scale(0.1 -0.1)">
       <use xlink:href="#DejaVuSans-38"/>
       <use x="63.623047" xlink:href="#DejaVuSans-30"/>
      </g>
     </g>
    </g>
    <g id="text_6">
     <!-- Generations -->
     <defs>
      <path d="M 59.515625 10.40625 
L 59.515625 29.984375 
L 43.40625 29.984375 
L 43.40625 38.09375 
L 69.28125 38.09375 
L 69.28125 6.78125 
Q 63.578125 2.734375 56.6875 0.65625 
Q 49.8125 -1.421875 42 -1.421875 
Q 24.90625 -1.421875 15.25 8.5625 
Q 5.609375 18.5625 5.609375 36.375 
Q 5.609375 54.25 15.25 64.234375 
Q 24.90625 74.21875 42 74.21875 
Q 49.125 74.21875 55.546875 72.453125 
Q 61.96875 70.703125 67.390625 67.28125 
L 67.390625 56.78125 
Q 61.921875 61.421875 55.765625 63.765625 
Q 49.609375 66.109375 42.828125 66.109375 
Q 29.4375 66.109375 22.71875 58.640625 
Q 16.015625 51.171875 16.015625 36.375 
Q 16.015625 21.625 22.71875 14.15625 
Q 29.4375 6.6875 42.828125 6.6875 
Q 48.046875 6.6875 52.140625 7.59375 
Q 56.25 8.5 59.515625 10.40625 
z
" id="DejaVuSans-47"/>
      <path d="M 56.203125 29.59375 
L 56.203125 25.203125 
L 14.890625 25.203125 
Q 15.484375 15.921875 20.484375 11.0625 
Q 25.484375 6.203125 34.421875 6.203125 
Q 39.59375 6.203125 44.453125 7.46875 
Q 49.3125 8.734375 54.109375 11.28125 
L 54.109375 2.78125 
Q 49.265625 0.734375 44.1875 -0.34375 
Q 39.109375 -1.421875 33.890625 -1.421875 
Q 20.796875 -1.421875 13.15625 6.1875 
Q 5.515625 13.8125 5.515625 26.8125 
Q 5.515625 40.234375 12.765625 48.109375 
Q 20.015625 56 32.328125 56 
Q 43.359375 56 49.78125 48.890625 
Q 56.203125 41.796875 56.203125 29.59375 
z
M 47.21875 32.234375 
Q 47.125 39.59375 43.09375 43.984375 
Q 39.0625 48.390625 32.421875 48.390625 
Q 24.90625 48.390625 20.390625 44.140625 
Q 15.875 39.890625 15.1875 32.171875 
z
" id="DejaVuSans-65"/>
      <path d="M 54.890625 33.015625 
L 54.890625 0 
L 45.90625 0 
L 45.90625 32.71875 
Q 45.90625 40.484375 42.875 44.328125 
Q 39.84375 48.1875 33.796875 48.1875 
Q 26.515625 48.1875 22.3125 43.546875 
Q 18.109375 38.921875 18.109375 30.90625 
L 18.109375 0 
L 9.078125 0 
L 9.078125 54.6875 
L 18.109375 54.6875 
L 18.109375 46.1875 
Q 21.34375 51.125 25.703125 53.5625 
Q 30.078125 56 35.796875 56 
Q 45.21875 56 50.046875 50.171875 
Q 54.890625 44.34375 54.890625 33.015625 
z
" id="DejaVuSans-6e"/>
      <path d="M 41.109375 46.296875 
Q 39.59375 47.171875 37.8125 47.578125 
Q 36.03125 48 33.890625 48 
Q 26.265625 48 22.1875 43.046875 
Q 18.109375 38.09375 18.109375 28.8125 
L 18.109375 0 
L 9.078125 0 
L 9.078125 54.6875 
L 18.109375 54.6875 
L 18.109375 46.1875 
Q 20.953125 51.171875 25.484375 53.578125 
Q 30.03125 56 36.53125 56 
Q 37.453125 56 38.578125 55.875 
Q 39.703125 55.765625 41.0625 55.515625 
z
" id="DejaVuSans-72"/>
      <path d="M 34.28125 27.484375 
Q 23.390625 27.484375 19.1875 25 
Q 14.984375 22.515625 14.984375 16.5 
Q 14.984375 11.71875 18.140625 8.90625 
Q 21.296875 6.109375 26.703125 6.109375 
Q 34.1875 6.109375 38.703125 11.40625 
Q 43.21875 16.703125 43.21875 25.484375 
L 43.21875 27.484375 
z
M 52.203125 31.203125 
L 52.203125 0 
L 43.21875 0 
L 43.21875 8.296875 
Q 40.140625 3.328125 35.546875 0.953125 
Q 30.953125 -1.421875 24.3125 -1.421875 
Q 15.921875 -1.421875 10.953125 3.296875 
Q 6 8.015625 6 15.921875 
Q 6 25.140625 12.171875 29.828125 
Q 18.359375 34.515625 30.609375 34.515625 
L 43.21875 34.515625 
L 43.21875 35.40625 
Q 43.21875 41.609375 39.140625 45 
Q 35.0625 48.390625 27.6875 48.390625 
Q 23 48.390625 18.546875 47.265625 
Q 14.109375 46.140625 10.015625 43.890625 
L 10.015625 52.203125 
Q 14.9375 54.109375 19.578125 55.046875 
Q 24.21875 56 28.609375 56 
Q 40.484375 56 46.34375 49.84375 
Q 52.203125 43.703125 52.203125 31.203125 
z
" id="DejaVuSans-61"/>
      <path d="M 18.3125 70.21875 
L 18.3125 54.6875 
L 36.8125 54.6875 
L 36.8125 47.703125 
L 18.3125 47.703125 
L 18.3125 18.015625 
Q 18.3125 11.328125 20.140625 9.421875 
Q 21.96875 7.515625 27.59375 7.515625 
L 36.8125 7.515625 
L 36.8125 0 
L 27.59375 0 
Q 17.1875 0 13.234375 3.875 
Q 9.28125 7.765625 9.28125 18.015625 
L 9.28125 47.703125 
L 2.6875 47.703125 
L 2.6875 54.6875 
L 9.28125 54.6875 
L 9.28125 70.21875 
z
" id="DejaVuSans-74"/>
      <path d="M 9.421875 54.6875 
L 18.40625 54.6875 
L 18.40625 0 
L 9.421875 0 
z
M 9.421875 75.984375 
L 18.40625 75.984375 
L 18.40625 64.59375 
L 9.421875 64.59375 
z
" id="DejaVuSans-69"/>
      <path d="M 30.609375 48.390625 
Q 23.390625 48.390625 19.1875 42.75 
Q 14.984375 37.109375 14.984375 27.296875 
Q 14.984375 17.484375 19.15625 11.84375 
Q 23.34375 6.203125 30.609375 6.203125 
Q 37.796875 6.203125 41.984375 11.859375 
Q 46.1875 17.53125 46.1875 27.296875 
Q 46.1875 37.015625 41.984375 42.703125 
Q 37.796875 48.390625 30.609375 48.390625 
z
M 30.609375 56 
Q 42.328125 56 49.015625 48.375 
Q 55.71875 40.765625 55.71875 27.296875 
Q 55.71875 13.875 49.015625 6.21875 
Q 42.328125 -1.421875 30.609375 -1.421875 
Q 18.84375 -1.421875 12.171875 6.21875 
Q 5.515625 13.875 5.515625 27.296875 
Q 5.515625 40.765625 12.171875 48.375 
Q 18.84375 56 30.609375 56 
z
" id="DejaVuSans-6f"/>
      <path d="M 44.28125 53.078125 
L 44.28125 44.578125 
Q 40.484375 46.53125 36.375 47.5 
Q 32.28125 48.484375 27.875 48.484375 
Q 21.1875 48.484375 17.84375 46.4375 
Q 14.5 44.390625 14.5 40.28125 
Q 14.5 37.15625 16.890625 35.375 
Q 19.28125 33.59375 26.515625 31.984375 
L 29.59375 31.296875 
Q 39.15625 29.25 43.1875 25.515625 
Q 47.21875 21.78125 47.21875 15.09375 
Q 47.21875 7.46875 41.1875 3.015625 
Q 35.15625 -1.421875 24.609375 -1.421875 
Q 20.21875 -1.421875 15.453125 -0.5625 
Q 10.6875 0.296875 5.421875 2 
L 5.421875 11.28125 
Q 10.40625 8.6875 15.234375 7.390625 
Q 20.0625 6.109375 24.8125 6.109375 
Q 31.15625 6.109375 34.5625 8.28125 
Q 37.984375 10.453125 37.984375 14.40625 
Q 37.984375 18.0625 35.515625 20.015625 
Q 33.0625 21.96875 24.703125 23.78125 
L 21.578125 24.515625 
Q 13.234375 26.265625 9.515625 29.90625 
Q 5.8125 33.546875 5.8125 39.890625 
Q 5.8125 47.609375 11.28125 51.796875 
Q 16.75 56 26.8125 56 
Q 31.78125 56 36.171875 55.265625 
Q 40.578125 54.546875 44.28125 53.078125 
z
" id="DejaVuSans-73"/>
     </defs>
     <g transform="translate(205.662344 335.860562)scale(0.1 -0.1)">
      <use xlink:href="#DejaVuSans-47"/>
      <use x="77.490234" xlink:href="#DejaVuSans-65"/>
      <use x="139.013672" xlink:href="#DejaVuSans-6e"/>
      <use x="202.392578" xlink:href="#DejaVuSans-65"/>
      <use x="263.916016" xlink:href="#DejaVuSans-72"/>
      <use x="305.029297" xlink:href="#DejaVuSans-61"/>
      <use x="366.308594" xlink:href="#DejaVuSans-74"/>
      <use x="405.517578" xlink:href="#DejaVuSans-69"/>
      <use x="433.300781" xlink:href="#DejaVuSans-6f"/>
      <use x="494.482422" xlink:href="#DejaVuSans-6e"/>
      <use x="557.861328" xlink:href="#DejaVuSans-73"/>
     </g>
    </g>
   </g>
   <g id="matplotlib.axis_2">
    <g id="ytick_1">
     <g id="line2d_6">
      <defs>
       <path d="M 0 0 
L -3.5 0 
" id="m7c4c115874" style="stroke:#000000;stroke-width:0.8;"/>
      </defs>
      <g>
       <use style="stroke:#000000;stroke-width:0.8;" x="57.6" xlink:href="#m7c4c115874" y="307.584"/>
      </g>
     </g>
     <g id="text_7">
      <!-- 0 -->
      <g transform="translate(44.2375 311.383219)scale(0.1 -0.1)">
       <use xlink:href="#DejaVuSans-30"/>
      </g>
     </g>
    </g>
    <g id="ytick_2">
     <g id="line2d_7">
      <g>
       <use style="stroke:#000000;stroke-width:0.8;" x="57.6" xlink:href="#m7c4c115874" y="274.236632"/>
      </g>
     </g>
     <g id="text_8">
      <!-- 20 -->
      <g transform="translate(37.875 278.03585)scale(0.1 -0.1)">
       <use xlink:href="#DejaVuSans-32"/>
       <use x="63.623047" xlink:href="#DejaVuSans-30"/>
      </g>
     </g>
    </g>
    <g id="ytick_3">
     <g id="line2d_8">
      <g>
       <use style="stroke:#000000;stroke-width:0.8;" x="57.6" xlink:href="#m7c4c115874" y="240.889263"/>
      </g>
     </g>
     <g id="text_9">
      <!-- 40 -->
      <g transform="translate(37.875 244.688482)scale(0.1 -0.1)">
       <use xlink:href="#DejaVuSans-34"/>
       <use x="63.623047" xlink:href="#DejaVuSans-30"/>
      </g>
     </g>
    </g>
    <g id="ytick_4">
     <g id="line2d_9">
      <g>
       <use style="stroke:#000000;stroke-width:0.8;" x="57.6" xlink:href="#m7c4c115874" y="207.541895"/>
      </g>
     </g>
     <g id="text_10">
      <!-- 60 -->
      <g transform="translate(37.875 211.341113)scale(0.1 -0.1)">
       <use xlink:href="#DejaVuSans-36"/>
       <use x="63.623047" xlink:href="#DejaVuSans-30"/>
      </g>
     </g>
    </g>
    <g id="ytick_5">
     <g id="line2d_10">
      <g>
       <use style="stroke:#000000;stroke-width:0.8;" x="57.6" xlink:href="#m7c4c115874" y="174.194526"/>
      </g>
     </g>
     <g id="text_11">
      <!-- 80 -->
      <g transform="translate(37.875 177.993745)scale(0.1 -0.1)">
       <use xlink:href="#DejaVuSans-38"/>
       <use x="63.623047" xlink:href="#DejaVuSans-30"/>
      </g>
     </g>
    </g>
    <g id="ytick_6">
     <g id="line2d_11">
      <g>
       <use style="stroke:#000000;stroke-width:0.8;" x="57.6" xlink:href="#m7c4c115874" y="140.847158"/>
      </g>
     </g>
     <g id="text_12">
      <!-- 100 -->
      <defs>
       <path d="M 12.40625 8.296875 
L 28.515625 8.296875 
L 28.515625 63.921875 
L 10.984375 60.40625 
L 10.984375 69.390625 
L 28.421875 72.90625 
L 38.28125 72.90625 
L 38.28125 8.296875 
L 54.390625 8.296875 
L 54.390625 0 
L 12.40625 0 
z
" id="DejaVuSans-31"/>
      </defs>
      <g transform="translate(31.5125 144.646377)scale(0.1 -0.1)">
       <use xlink:href="#DejaVuSans-31"/>
       <use x="63.623047" xlink:href="#DejaVuSans-30"/>
       <use x="127.246094" xlink:href="#DejaVuSans-30"/>
      </g>
     </g>
    </g>
    <g id="ytick_7">
     <g id="line2d_12">
      <g>
       <use style="stroke:#000000;stroke-width:0.8;" x="57.6" xlink:href="#m7c4c115874" y="107.499789"/>
      </g>
     </g>
     <g id="text_13">
      <!-- 120 -->
      <g transform="translate(31.5125 111.299008)scale(0.1 -0.1)">
       <use xlink:href="#DejaVuSans-31"/>
       <use x="63.623047" xlink:href="#DejaVuSans-32"/>
       <use x="127.246094" xlink:href="#DejaVuSans-30"/>
      </g>
     </g>
    </g>
    <g id="ytick_8">
     <g id="line2d_13">
      <g>
       <use style="stroke:#000000;stroke-width:0.8;" x="57.6" xlink:href="#m7c4c115874" y="74.152421"/>
      </g>
     </g>
     <g id="text_14">
      <!-- 140 -->
      <g transform="translate(31.5125 77.95164)scale(0.1 -0.1)">
       <use xlink:href="#DejaVuSans-31"/>
       <use x="63.623047" xlink:href="#DejaVuSans-34"/>
       <use x="127.246094" xlink:href="#DejaVuSans-30"/>
      </g>
     </g>
    </g>
    <g id="text_15">
     <!-- Size per Species -->
     <defs>
      <path d="M 53.515625 70.515625 
L 53.515625 60.890625 
Q 47.90625 63.578125 42.921875 64.890625 
Q 37.9375 66.21875 33.296875 66.21875 
Q 25.25 66.21875 20.875 63.09375 
Q 16.5 59.96875 16.5 54.203125 
Q 16.5 49.359375 19.40625 46.890625 
Q 22.3125 44.4375 30.421875 42.921875 
L 36.375 41.703125 
Q 47.40625 39.59375 52.65625 34.296875 
Q 57.90625 29 57.90625 20.125 
Q 57.90625 9.515625 50.796875 4.046875 
Q 43.703125 -1.421875 29.984375 -1.421875 
Q 24.8125 -1.421875 18.96875 -0.25 
Q 13.140625 0.921875 6.890625 3.21875 
L 6.890625 13.375 
Q 12.890625 10.015625 18.65625 8.296875 
Q 24.421875 6.59375 29.984375 6.59375 
Q 38.421875 6.59375 43.015625 9.90625 
Q 47.609375 13.234375 47.609375 19.390625 
Q 47.609375 24.75 44.3125 27.78125 
Q 41.015625 30.8125 33.5 32.328125 
L 27.484375 33.5 
Q 16.453125 35.6875 11.515625 40.375 
Q 6.59375 45.0625 6.59375 53.421875 
Q 6.59375 63.09375 13.40625 68.65625 
Q 20.21875 74.21875 32.171875 74.21875 
Q 37.3125 74.21875 42.625 73.28125 
Q 47.953125 72.359375 53.515625 70.515625 
z
" id="DejaVuSans-53"/>
      <path d="M 5.515625 54.6875 
L 48.1875 54.6875 
L 48.1875 46.484375 
L 14.40625 7.171875 
L 48.1875 7.171875 
L 48.1875 0 
L 4.296875 0 
L 4.296875 8.203125 
L 38.09375 47.515625 
L 5.515625 47.515625 
z
" id="DejaVuSans-7a"/>
      <path id="DejaVuSans-20"/>
      <path d="M 18.109375 8.203125 
L 18.109375 -20.796875 
L 9.078125 -20.796875 
L 9.078125 54.6875 
L 18.109375 54.6875 
L 18.109375 46.390625 
Q 20.953125 51.265625 25.265625 53.625 
Q 29.59375 56 35.59375 56 
Q 45.5625 56 51.78125 48.09375 
Q 58.015625 40.1875 58.015625 27.296875 
Q 58.015625 14.40625 51.78125 6.484375 
Q 45.5625 -1.421875 35.59375 -1.421875 
Q 29.59375 -1.421875 25.265625 0.953125 
Q 20.953125 3.328125 18.109375 8.203125 
z
M 48.6875 27.296875 
Q 48.6875 37.203125 44.609375 42.84375 
Q 40.53125 48.484375 33.40625 48.484375 
Q 26.265625 48.484375 22.1875 42.84375 
Q 18.109375 37.203125 18.109375 27.296875 
Q 18.109375 17.390625 22.1875 11.75 
Q 26.265625 6.109375 33.40625 6.109375 
Q 40.53125 6.109375 44.609375 11.75 
Q 48.6875 17.390625 48.6875 27.296875 
z
" id="DejaVuSans-70"/>
      <path d="M 48.78125 52.59375 
L 48.78125 44.1875 
Q 44.96875 46.296875 41.140625 47.34375 
Q 37.3125 48.390625 33.40625 48.390625 
Q 24.65625 48.390625 19.8125 42.84375 
Q 14.984375 37.3125 14.984375 27.296875 
Q 14.984375 17.28125 19.8125 11.734375 
Q 24.65625 6.203125 33.40625 6.203125 
Q 37.3125 6.203125 41.140625 7.25 
Q 44.96875 8.296875 48.78125 10.40625 
L 48.78125 2.09375 
Q 45.015625 0.34375 40.984375 -0.53125 
Q 36.96875 -1.421875 32.421875 -1.421875 
Q 20.0625 -1.421875 12.78125 6.34375 
Q 5.515625 14.109375 5.515625 27.296875 
Q 5.515625 40.671875 12.859375 48.328125 
Q 20.21875 56 33.015625 56 
Q 37.15625 56 41.109375 55.140625 
Q 45.0625 54.296875 48.78125 52.59375 
z
" id="DejaVuSans-63"/>
     </defs>
     <g transform="translate(25.432812 215.520969)rotate(-90)scale(0.1 -0.1)">
      <use xlink:href="#DejaVuSans-53"/>
      <use x="63.476562" xlink:href="#DejaVuSans-69"/>
      <use x="91.259766" xlink:href="#DejaVuSans-7a"/>
      <use x="143.75" xlink:href="#DejaVuSans-65"/>
      <use x="205.273438" xlink:href="#DejaVuSans-20"/>
      <use x="237.060547" xlink:href="#DejaVuSans-70"/>
      <use x="300.537109" xlink:href="#DejaVuSans-65"/>
      <use x="362.060547" xlink:href="#DejaVuSans-72"/>
      <use x="403.173828" xlink:href="#DejaVuSans-20"/>
      <use x="434.960938" xlink:href="#DejaVuSans-53"/>
      <use x="498.4375" xlink:href="#DejaVuSans-70"/>
      <use x="561.914062" xlink:href="#DejaVuSans-65"/>
      <use x="623.4375" xlink:href="#DejaVuSans-63"/>
      <use x="678.417969" xlink:href="#DejaVuSans-69"/>
      <use x="706.201172" xlink:href="#DejaVuSans-65"/>
      <use x="767.724609" xlink:href="#DejaVuSans-73"/>
     </g>
    </g>
   </g>
   <g id="patch_3">
    <path d="M 57.6 307.584 
L 57.6 41.472 
" style="fill:none;stroke:#000000;stroke-linecap:square;stroke-linejoin:miter;stroke-width:0.8;"/>
   </g>
   <g id="patch_4">
    <path d="M 414.72 307.584 
L 414.72 41.472 
" style="fill:none;stroke:#000000;stroke-linecap:square;stroke-linejoin:miter;stroke-width:0.8;"/>
   </g>
   <g id="patch_5">
    <path d="M 57.6 307.584 
L 414.72 307.584 
" style="fill:none;stroke:#000000;stroke-linecap:square;stroke-linejoin:miter;stroke-width:0.8;"/>
   </g>
   <g id="patch_6">
    <path d="M 57.6 41.472 
L 414.72 41.472 
" style="fill:none;stroke:#000000;stroke-linecap:square;stroke-linejoin:miter;stroke-width:0.8;"/>
   </g>
   <g id="text_16">
    <!-- Speciation -->
    <g transform="translate(204.714375 35.472)scale(0.12 -0.12)">
     <use xlink:href="#DejaVuSans-53"/>
     <use x="63.476562" xlink:href="#DejaVuSans-70"/>
     <use x="126.953125" xlink:href="#DejaVuSans-65"/>
     <use x="188.476562" xlink:href="#DejaVuSans-63"/>
     <use x="243.457031" xlink:href="#DejaVuSans-69"/>
     <use x="271.240234" xlink:href="#DejaVuSans-61"/>
     <use x="332.519531" xlink:href="#DejaVuSans-74"/>
     <use x="371.728516" xlink:href="#DejaVuSans-69"/>
     <use x="399.511719" xlink:href="#DejaVuSans-6f"/>
     <use x="460.693359" xlink:href="#DejaVuSans-6e"/>
    </g>
   </g>
  </g>
 </g>
 <defs>
  <clipPath id="p2fc9347fae">
   <rect height="266.112" width="357.12" x="57.6" y="41.472"/>
  </clipPath>
 </defs>
</svg>
